<?xml version="1.0" encoding="utf-8"?>
<svg viewBox="8.685 13.0161 35.0258 41.1869" xmlns="http://www.w3.org/2000/svg">
  <g transform="matrix(0.10394199937582016, 0, 0, 0.10394199937582016, 8.46820068359375, 14.254085540771484)" style="">
    <g>
      <title>Carpeta</title>
      <path d="M 76.688 61.788 L 264.458 61.788 C 276.02 61.788 285.393 71.161 285.393 82.723 L 285.393 332.178 C 285.393 343.74 276.02 353.113 264.458 353.113 L 76.688 353.113 C 65.126 353.113 55.753 343.74 55.753 332.178 L 55.753 82.723 C 55.753 71.161 65.126 61.788 76.688 61.788 Z M 80.805 104.088 L 80.805 313.24 C 80.805 318.379 84.971 322.545 90.11 322.545 L 251.036 322.545 C 256.175 322.545 260.341 318.379 260.341 313.24 L 260.341 104.088 C 260.341 98.949 256.175 94.783 251.036 94.783 L 90.11 94.783 C 84.971 94.783 80.805 98.949 80.805 104.088 Z" style="stroke-linejoin: round; stroke-width: 7px; stroke-linecap: round;">
        <title>Carpeta</title>
      </path>
      <path d="M 143.151 151.403 L 222.594 151.403 L 143.151 151.403 Z" style="stroke-width: 3px; transform-box: fill-box; transform-origin: 50% 50%; fill: none; stroke: rgb(0, 0, 0);" transform="matrix(1, 0, 0, 1, 0, -0.000059)">
        <title>Primera Linea</title>
      </path>
      <rect x="106.489" y="140.481" width="22.154" height="21.847" style="stroke-width: 5px; fill: none; stroke: rgb(0, 0, 0);" rx="2.908" ry="2.908">
        <title>Primer Checkbox</title>
      </rect>
      <path style="stroke-width: 4.21724px; fill: none; stroke: rgb(0, 0, 0);" d="M 111.663 149.275 L 117.787 156.366 L 131.11 136.119">
        <title>vMark</title>
      </path>
      <path d="M 143.151 196.283 L 222.594 196.283 L 143.151 196.283 Z" style="stroke-width: 3px; transform-box: fill-box; transform-origin: 50% 50%; stroke: rgb(0, 0, 0); fill: none;">
        <title>Segunda Linea</title>
      </path>
      <rect x="106.489" y="185.359" width="22.154" height="21.847" style="stroke-width: 5px; fill: none; stroke: rgb(0, 0, 0);" rx="2.908" ry="2.908">
        <title>Segundo Checbox</title>
      </rect>
      <path style="stroke-width: 4.21724px; fill: none; stroke: rgb(0, 0, 0);" d="M 111.842 194.315 L 117.966 201.406 L 131.289 181.159">
        <title>vMark</title>
      </path>
      <path d="M 143.151 241.161 L 222.594 241.161 L 143.151 241.161 Z" style="stroke-width: 3px; transform-box: fill-box; transform-origin: 50% 50%; fill: none; stroke: rgb(0, 0, 0);" transform="matrix(1, 0, 0, 1.000001, 0, -0.000117)">
        <title>Tercera Linea</title>
      </path>
      <rect x="106.489" y="230.238" width="22.154" height="21.847" style="stroke-width: 5px; fill: none; stroke: rgb(0, 0, 0);" rx="2.908" ry="2.908">
        <title>Tercer Checkbox</title>
      </rect>
      <path style="stroke-width: 4.21724px; fill: none; stroke: rgb(0, 0, 0);" d="M 111.842 239.194 L 117.966 246.285 L 131.289 226.038">
        <title>vMark</title>
      </path>
      <path d="M 143.151 286.04 L 222.594 286.04 L 143.151 286.04 Z" style="stroke-width: 3px; stroke: rgb(0, 0, 0); fill: none;">
        <title>Cuarta Linea</title>
      </path>
      <rect x="106.489" y="275.116" width="22.154" height="21.847" style="stroke-width: 5px; fill: none; stroke: rgb(0, 0, 0);" rx="2.908" ry="2.908">
        <title>Cuarto Checkbox</title>
      </rect>
    </g>
    <g transform="matrix(0.85371, 0, 0, 0.85371, -335.181458, 1.258353)" style="">
      <title>Clip</title>
      <path d="M 624.112 56.562 C 624.112 56.571 624.112 56.58 624.112 56.589 C 624.112 56.598 624.112 56.607 624.112 56.615 C 624.112 56.624 624.112 56.632 624.112 56.641 C 624.112 56.65 624.112 56.659 624.112 56.667 C 624.112 56.676 624.112 56.685 624.112 56.693 C 624.112 56.702 624.112 56.711 624.112 56.719 C 624.112 56.728 624.112 56.736 624.112 56.745 C 624.112 56.753 624.112 56.762 624.111 56.77 C 624.111 56.779 624.111 56.788 624.111 56.796 C 624.111 56.805 624.111 56.814 624.111 56.822 C 624.111 56.831 624.111 56.84 624.111 56.848 C 624.111 56.857 624.111 56.866 624.111 56.874 C 624.111 56.883 624.111 56.891 624.111 56.9 C 624.111 56.908 624.11 56.917 624.11 56.926 C 624.11 56.935 624.11 56.943 624.11 56.952 C 624.11 56.961 624.11 56.97 624.11 56.979 L 625.354 56.978 L 626.598 56.977 L 627.842 56.976 L 629.086 56.974 L 630.33 56.973 L 631.575 56.971 L 632.819 56.97 L 634.063 56.968 L 635.308 56.967 L 636.552 56.966 L 637.796 56.965 L 639.04 56.964 L 640.284 56.963 L 641.528 56.961 L 642.772 56.96 L 644.016 56.958 C 644.549 56.958 645.075 56.987 645.593 57.045 C 646.111 57.104 646.622 57.191 647.123 57.305 C 647.625 57.419 648.117 57.561 648.6 57.728 C 649.082 57.895 649.555 58.088 650.015 58.305 C 650.476 58.523 650.926 58.765 651.362 59.03 C 651.799 59.295 652.223 59.583 652.633 59.892 C 653.043 60.202 653.439 60.533 653.819 60.883 C 654.199 61.234 654.564 61.605 654.913 61.994 C 655.262 62.384 655.594 62.792 655.908 63.217 C 656.222 63.643 656.518 64.085 656.795 64.543 C 657.072 65.001 657.33 65.475 657.567 65.963 C 657.804 66.452 658.021 66.954 658.216 67.469 C 658.411 67.985 658.584 68.513 658.734 69.052 C 658.885 69.591 659.012 70.142 659.114 70.703 C 659.217 71.264 659.295 71.835 659.347 72.415 C 659.4 72.994 659.427 73.582 659.427 74.177 L 659.427 87.021 L 659.427 99.865 L 659.427 112.709 L 659.427 125.552 L 651.051 125.561 L 642.675 125.57 L 634.299 125.579 L 625.923 125.588 L 617.548 125.597 L 609.172 125.605 L 600.796 125.614 L 592.42 125.622 L 584.044 125.631 L 575.668 125.64 L 567.292 125.649 L 558.916 125.657 L 550.541 125.666 L 542.165 125.674 L 533.789 125.683 L 525.413 125.691 L 525.413 112.848 L 525.413 100.004 L 525.413 87.16 L 525.413 74.316 C 525.413 73.721 525.44 73.133 525.493 72.554 C 525.545 71.974 525.623 71.403 525.726 70.842 C 525.829 70.281 525.956 69.73 526.106 69.19 C 526.256 68.651 526.429 68.122 526.624 67.606 C 526.819 67.091 527.036 66.588 527.273 66.099 C 527.51 65.611 527.768 65.136 528.045 64.677 C 528.322 64.219 528.618 63.776 528.932 63.35 C 529.247 62.924 529.579 62.515 529.927 62.125 C 530.276 61.735 530.641 61.363 531.021 61.011 C 531.402 60.659 531.798 60.328 532.207 60.017 C 532.617 59.707 533.041 59.419 533.478 59.153 C 533.915 58.887 534.364 58.645 534.825 58.426 C 535.286 58.208 535.759 58.013 536.241 57.845 C 536.724 57.677 537.216 57.534 537.718 57.419 C 538.219 57.304 538.73 57.215 539.248 57.156 C 539.766 57.096 540.292 57.066 540.824 57.065 L 542.068 57.064 L 543.312 57.063 L 544.556 57.062 L 545.8 57.06 L 547.044 57.059 L 548.288 57.057 L 549.532 57.056 L 550.777 57.054 L 552.021 57.053 L 553.265 57.052 L 554.509 57.051 L 555.753 57.049 L 556.997 57.048 L 558.241 57.047 L 559.485 57.046 L 560.729 57.044 C 560.729 57.036 560.729 57.027 560.729 57.018 C 560.729 57.01 560.729 57.001 560.729 56.992 C 560.729 56.983 560.729 56.974 560.728 56.966 C 560.728 56.957 560.728 56.948 560.728 56.939 C 560.728 56.931 560.728 56.922 560.728 56.914 C 560.728 56.905 560.728 56.897 560.728 56.888 C 560.728 56.879 560.728 56.87 560.728 56.862 C 560.728 56.853 560.728 56.845 560.728 56.836 C 560.727 56.828 560.727 56.819 560.727 56.81 C 560.727 56.801 560.727 56.793 560.727 56.784 C 560.727 56.775 560.727 56.766 560.727 56.758 C 560.727 56.749 560.727 56.741 560.727 56.732 C 560.727 56.724 560.727 56.715 560.727 56.706 C 560.727 56.697 560.727 56.689 560.727 56.68 C 560.727 56.672 560.727 56.663 560.727 56.654 C 560.727 56.645 560.727 56.636 560.727 56.627 C 560.727 55.404 560.782 54.195 560.891 53.003 C 560.999 51.812 561.16 50.638 561.371 49.484 C 561.582 48.33 561.843 47.197 562.151 46.086 C 562.46 44.976 562.816 43.89 563.217 42.829 C 563.618 41.769 564.064 40.734 564.552 39.729 C 565.04 38.724 565.57 37.749 566.14 36.805 C 566.709 35.862 567.318 34.951 567.964 34.075 C 568.61 33.199 569.293 32.358 570.01 31.555 C 570.727 30.753 571.478 29.988 572.26 29.265 C 573.043 28.542 573.857 27.861 574.7 27.223 C 575.543 26.585 576.415 25.992 577.313 25.445 C 578.211 24.899 579.136 24.4 580.084 23.95 C 581.031 23.501 582.003 23.101 582.995 22.755 C 583.987 22.408 585 22.115 586.032 21.878 C 587.063 21.641 588.113 21.459 589.179 21.337 C 590.244 21.215 591.325 21.152 592.419 21.151 C 593.513 21.15 594.594 21.211 595.659 21.331 C 596.725 21.451 597.774 21.63 598.806 21.865 C 599.837 22.1 600.851 22.391 601.843 22.735 C 602.835 23.079 603.807 23.477 604.755 23.924 C 605.702 24.372 606.627 24.869 607.525 25.414 C 608.423 25.958 609.295 26.55 610.138 27.186 C 610.981 27.822 611.795 28.502 612.578 29.224 C 613.361 29.945 614.112 30.708 614.829 31.509 C 615.545 32.31 616.228 33.149 616.874 34.024 C 617.519 34.899 618.128 35.809 618.698 36.751 C 619.267 37.693 619.797 38.668 620.285 39.671 C 620.773 40.675 621.219 41.709 621.62 42.768 C 622.021 43.828 622.377 44.914 622.686 46.024 C 622.995 47.134 623.256 48.267 623.468 49.42 C 623.679 50.574 623.84 51.747 623.948 52.939 C 624.056 54.13 624.112 55.339 624.112 56.562 Z M 592.127 47.213 C 590.778 47.213 589.493 47.485 588.324 47.976 C 587.156 48.467 586.103 49.177 585.219 50.055 C 584.335 50.933 583.619 51.979 583.125 53.14 C 582.63 54.301 582.357 55.578 582.357 56.918 C 582.357 58.258 582.63 59.535 583.125 60.696 C 583.619 61.857 584.335 62.902 585.219 63.78 C 586.103 64.658 587.156 65.369 588.324 65.86 C 589.493 66.351 590.778 66.622 592.127 66.622 C 593.476 66.622 594.761 66.351 595.93 65.86 C 597.099 65.369 598.152 64.658 599.036 63.78 C 599.92 62.902 600.635 61.857 601.129 60.696 C 601.624 59.535 601.897 58.258 601.897 56.918 C 601.897 55.578 601.624 54.301 601.129 53.14 C 600.635 51.979 599.92 50.933 599.036 50.055 C 598.152 49.177 597.099 48.467 595.93 47.976 C 594.761 47.485 593.476 47.213 592.127 47.213 Z" style="stroke-width: 5px; stroke-linejoin: round;">
        <title>Clip</title>
      </path>
      <path d="M 542.715 76.203 L 642.041 76.203 C 650.231 76.203 656.873 81.354 656.873 87.709 L 656.873 129.328 C 656.873 135.682 650.231 140.835 642.041 140.835 L 542.715 140.835 C 534.524 140.835 527.882 135.682 527.882 129.328 L 527.882 87.709 C 527.882 81.354 534.524 76.203 542.715 76.203 Z" style="">
        <title>Fondo Clip</title>
      </path>
    </g>
  </g>
</svg>