<?xml version="1.0" encoding="utf-8"?>
<svg id="svg" version="1.1" width="400" height="400" viewBox="0, 0, 400,400" xmlns="http://www.w3.org/2000/svg">
  <g id="svgg" transform="matrix(1, 0, 0, 1, -44.190105, -9.234611)">
    <path id="path0" d="M 106.973 93.471 C 78.749 96.187 63.743 111.029 65.059 134.931 L 65.164 136.861 L 81.118 136.943 L 97.072 137.027 L 97.242 132.762 C 97.642 122.652 101.875 117.627 111.027 116.395 C 123.793 114.678 131.78 122.573 130.019 135.165 C 128.833 143.622 126.485 145.066 105.058 150.508 C 72.872 158.683 64.512 165.069 61.453 183.813 C 57.269 209.444 68.97 228.805 90.132 231.272 C 109.25 233.499 126.679 226.309 133.215 213.501 C 134.033 211.894 133.98 211.868 136.393 215.105 C 142.508 223.32 150.041 231.909 151.551 232.388 C 151.991 232.526 153.476 231.458 157.217 228.303 C 162.328 223.995 176.65 211.942 176.887 211.748 C 177.106 211.57 175.433 209.354 172.55 206.005 C 169.245 202.165 166.909 198.799 165.542 195.908 L 164.539 193.784 L 164.36 160.015 C 164.161 122.354 164.189 122.861 161.786 115.687 C 157.624 103.264 147.23 96.481 128.673 94.076 C 124.891 93.587 110.072 93.173 106.973 93.471 M 338.043 110.489 L 338.043 123.836 L 360.876 123.836 C 376.879 123.836 383.709 123.938 383.709 124.179 C 383.709 124.368 380.645 128.891 376.901 134.23 C 373.156 139.568 369.636 144.587 369.079 145.382 C 368.524 146.179 360.445 157.722 351.126 171.033 L 334.183 195.236 L 334.183 212.278 C 334.183 221.65 334.265 229.32 334.366 229.32 C 334.466 229.32 335.154 228.91 335.894 228.411 C 342.89 223.676 353.353 219.401 362.776 217.427 C 384.903 212.79 412.324 216.884 425.388 226.771 C 426.539 227.642 427.546 228.355 427.626 228.355 C 427.705 228.355 427.769 221.921 427.769 214.055 L 427.769 199.756 L 426.723 198.547 C 420.265 191.083 408.639 187.673 387.312 186.988 C 382.563 186.837 380.507 186.66 380.602 186.417 C 380.737 186.077 383.385 182.2 390.18 172.398 C 391.957 169.832 400.865 156.953 409.976 143.775 L 426.539 119.815 L 426.349 113.573 C 426.246 110.14 426.16 105.039 426.16 102.236 L 426.16 97.143 L 382.102 97.143 L 338.043 97.143 L 338.043 110.489 M 130.21 177.301 C 130.081 193.079 130.033 193.543 128.163 197.404 C 125.681 202.527 120.636 206.227 113.969 207.809 C 101.929 210.669 94.897 204.221 94.918 190.341 C 94.936 178.37 100.146 172.6 114.019 169.188 C 120.648 167.557 125.458 165.679 128.359 163.592 C 130.447 162.088 130.341 161.308 130.21 177.301" stroke="none" fill="#050505" fill-rule="evenodd" style=""/>
    <path id="path2" d="M 378.312 230.443 C 363.11 231.309 350.632 234.912 340.677 241.311 C 333.626 245.844 334.285 249.763 341.929 248.755 C 343.279 248.577 346.842 248.207 349.85 247.933 C 352.857 247.658 356.455 247.295 357.845 247.125 C 380.442 244.364 392.443 247.607 393.034 256.632 C 393.413 262.428 388.912 279.039 382.8 294.404 C 379.336 303.114 378.891 306.965 381.351 306.939 C 383.94 306.911 389.034 302.18 394.738 294.504 C 406.175 279.113 416.178 245.775 411.751 237.802 C 410.035 234.713 404.356 232.184 396.643 231.076 C 394.144 230.717 385.191 230.063 383.778 230.135 C 383.337 230.158 380.875 230.297 378.312 230.443 M 97.625 246.022 C 95.458 247.54 98.165 251.948 106.453 260.396 C 113.617 267.702 123.725 277.182 127.978 280.582 C 128.314 280.85 129.747 282.011 131.161 283.161 C 132.577 284.31 134.112 285.492 134.573 285.785 C 135.036 286.08 135.614 286.52 135.861 286.763 C 137.244 288.135 148.823 295.968 153.571 298.746 C 163.98 304.833 171.318 308.293 185.512 313.8 C 204.272 321.083 217.174 323.51 244.847 324.968 C 254.267 325.463 268.723 324.505 276.365 322.876 C 277.514 322.631 279.684 322.18 281.187 321.874 C 284.09 321.283 290.589 319.694 294.856 318.533 C 299.302 317.322 310.569 313.481 313.831 312.063 C 314.183 311.91 315.631 311.296 317.047 310.7 C 321.921 308.648 323.172 308.07 328.142 305.582 C 333.009 303.145 333.982 302.618 337.95 300.272 C 353.466 291.099 369.211 279.113 371.393 274.814 C 372.664 272.31 371.296 268.41 368.676 267.075 C 366.481 265.955 366.909 265.815 358.212 270.47 C 351.706 273.951 345.423 276.703 334.414 280.89 C 328.543 283.123 320.781 285.611 313.187 287.697 C 310.003 288.573 306.675 289.495 305.791 289.747 C 304.907 289.999 303.097 290.434 301.77 290.714 C 300.444 290.992 297.694 291.571 295.661 292.001 C 291.246 292.933 287.632 293.588 283.279 294.245 C 281.51 294.514 278.688 294.939 277.007 295.194 C 254.975 298.525 230.543 297.633 207.059 292.64 C 198.675 290.858 196.404 290.34 190.658 288.897 C 177.413 285.571 164.814 281.489 156.73 277.901 C 152.02 275.812 137.519 268.433 132.447 265.545 C 126.093 261.928 116.862 256.649 116.38 256.356 C 113.321 254.503 107.798 250.812 105.433 249.04 C 100.772 245.544 99.185 244.93 97.625 246.022" stroke="none" fill="#f79928" fill-rule="evenodd" style=""/>
  </g>
</svg>