<?xml version="1.0" encoding="utf-8"?>
<svg viewBox="0 0 400 400" xmlns="http://www.w3.org/2000/svg">
  <path id="path2" d="M 206.706 136.398 C 181.322 137.843 160.488 143.859 143.866 154.544 C 132.092 162.112 133.192 168.658 145.956 166.974 C 148.211 166.677 154.16 166.058 159.182 165.602 C 164.202 165.142 170.211 164.537 172.531 164.252 C 210.263 159.642 230.301 165.057 231.288 180.127 C 231.921 189.804 224.405 217.539 214.2 243.195 C 208.416 257.74 207.673 264.17 211.781 264.126 C 216.103 264.079 224.609 256.18 234.133 243.363 C 253.229 217.663 269.932 161.997 262.54 148.684 C 259.676 143.527 250.192 139.304 237.315 137.454 C 233.141 136.854 218.192 135.763 215.833 135.884 C 215.096 135.922 210.986 136.154 206.706 136.398" stroke="none" fill="#f79928" fill-rule="evenodd" style="transform-origin: 199.999px 200px;" transform="matrix(0.807729125023, 0.589554011822, -0.589554011822, 0.807729125023, 0.000013923866, 0.00000939286)"/>
  <path d="M 63.382 131.042 C 35.382 133.042 20.382 148.042 21.382 172.042 L 21.382 174.042 L 37.382 174.042 L 53.382 174.042 L 53.382 170.042 C 54.382 160.042 58.382 155.042 67.382 153.042 C 80.382 152.042 88.382 160.042 86.382 172.042 C 85.382 181.042 82.382 182.042 61.382 188.042 C 29.382 196.042 20.382 202.042 17.382 221.042 C 13.382 247.042 25.382 266.042 46.382 268.042 C 65.382 271.042 83.382 263.042 89.382 251.042 C 90.382 249.042 90.382 249.042 92.382 252.042 C 98.382 260.042 106.382 269.042 107.382 269.042 C 108.382 270.042 109.382 269.042 113.382 265.042 C 133.382 249.042 131.382 246.042 128.382 243.042 L 120.382 231.042 C 120.382 159.042 120.382 160.042 118.382 153.042 C 113.382 140.042 103.382 134.042 85.382 131.042 C 81.382 131.042 66.382 130.042 63.382 131.042 M 294.382 134.042 L 294.382 161.042 L 340.382 161.042 L 290.382 232.042 L 290.382 266.042 L 383.382 266.042 L 383.382 232.042 L 328.382 232.042 L 382.382 157.042 L 382.382 134.042 L 294.382 134.042 Z M 86.382 214.042 C 86.382 230.042 86.382 231.042 84.382 234.042 C 82.382 240.042 76.382 243.042 70.382 245.042 C 58.382 248.042 51.382 241.042 51.382 227.042 C 51.382 215.042 56.382 210.042 70.382 206.042 C 77.382 205.042 81.382 203.042 84.382 201.042 C 86.382 199.042 86.382 198.042 86.382 214.042" fill="#000000" transform="matrix(1, 0, 0, 1, 0, 7.105427357601002e-15)"/>
</svg>