<?xml version="1.0" encoding="utf-8"?>
<svg id="svg" version="1.1" width="400" height="400" viewBox="0, 0, 400,400" xmlns="http://www.w3.org/2000/svg">
  <g id="svgg" transform="matrix(1, 0, 0, 1, -44.190105, -9.234611)">
    <path id="path0" d="M 106.973 93.471 C 78.749 96.187 63.743 111.029 65.059 134.931 L 65.164 136.861 L 81.118 136.943 L 97.072 137.027 L 97.242 132.762 C 97.642 122.652 101.875 117.627 111.027 116.395 C 123.793 114.678 131.78 122.573 130.019 135.165 C 128.833 143.622 126.485 145.066 105.058 150.508 C 72.872 158.683 64.512 165.069 61.453 183.813 C 57.269 209.444 68.97 228.805 90.132 231.272 C 109.25 233.499 126.679 226.309 133.215 213.501 C 134.033 211.894 133.98 211.868 136.393 215.105 C 142.508 223.32 150.041 231.909 151.551 232.388 C 151.991 232.526 153.476 231.458 157.217 228.303 C 162.328 223.995 176.65 211.942 176.887 211.748 C 177.106 211.57 175.433 209.354 172.55 206.005 C 169.245 202.165 166.909 198.799 165.542 195.908 L 164.539 193.784 L 164.36 160.015 C 164.161 122.354 164.189 122.861 161.786 115.687 C 157.624 103.264 147.23 96.481 128.673 94.076 C 124.891 93.587 110.072 93.173 106.973 93.471 M 338.043 110.489 L 338.043 123.836 L 360.876 123.836 C 376.879 123.836 383.709 123.938 383.709 124.179 C 383.709 124.368 380.645 128.891 376.901 134.23 C 373.156 139.568 369.636 144.587 369.079 145.382 C 368.524 146.179 360.445 157.722 351.126 171.033 L 334.183 195.236 L 334.183 212.278 C 334.183 221.65 334.265 229.32 334.366 229.32 C 334.466 229.32 427.546 228.355 427.626 228.355 C 427.705 228.355 427.769 221.921 427.769 214.055 L 427.769 194.651 C 427.769 194.651 372.537 195.039 372.632 194.796 C 372.767 194.456 383.385 182.2 390.18 172.398 C 391.957 169.832 400.865 156.953 409.976 143.775 L 426.539 119.815 L 426.349 113.573 C 426.246 110.14 426.16 105.039 426.16 102.236 L 426.16 97.143 L 382.102 97.143 L 338.043 97.143 L 338.043 110.489 M 130.21 177.301 C 130.081 193.079 130.033 193.543 128.163 197.404 C 125.681 202.527 120.636 206.227 113.969 207.809 C 101.929 210.669 94.897 204.221 94.918 190.341 C 94.936 178.37 100.146 172.6 114.019 169.188 C 120.648 167.557 125.458 165.679 128.359 163.592 C 130.447 162.088 130.341 161.308 130.21 177.301" stroke="none" fill="#050505" fill-rule="evenodd" style=""/>
    <path id="path2" d="M 241.608 110.387 C 216.224 111.832 195.39 117.848 178.768 128.533 C 166.994 136.101 168.094 142.647 180.858 140.963 C 183.113 140.666 189.062 140.047 194.084 139.591 C 199.104 139.131 205.113 138.526 207.433 138.241 C 245.165 133.631 265.203 139.046 266.19 154.116 C 266.823 163.793 259.307 191.528 249.102 217.184 C 243.318 231.729 242.575 238.159 246.683 238.115 C 251.005 238.068 259.511 230.169 269.035 217.352 C 288.131 191.652 304.834 135.986 297.442 122.673 C 294.578 117.516 285.094 113.293 272.217 111.443 C 268.043 110.843 253.094 109.752 250.735 109.873 C 249.998 109.911 245.888 110.143 241.608 110.387" stroke="none" fill="#f79928" fill-rule="evenodd" style="transform-box: fill-box; transform-origin: 50% 50%;" transform="matrix(0.807729, 0.589554, -0.589554, 0.807729, 0.000001, 0.000003)"/>
  </g>
</svg>