<?xml version="1.0" encoding="utf-8"?>
<svg id="svg" version="1.1" width="400" height="400" viewBox="0, 0, 400,400" xmlns="http://www.w3.org/2000/svg">
  <path d="M 389.139 145.723 L 292.279 242.583 C 318.694 189.751 292.279 163.332 265.862 163.332 C 213.027 163.332 221.834 216.167 248.25 233.776 C 221.834 260.195 177.806 260.195 151.39 216.167 C 133.778 180.943 133.778 110.499 151.39 75.278 C 177.806 31.25 221.834 40.054 248.25 57.667 C 221.834 75.278 213.027 128.111 265.862 128.111 C 292.279 128.111 318.694 101.694 292.279 48.862 L 389.139 145.723 Z" style="fill: rgb(0, 82, 156);"/>
  <path d="M 10.862 145.652 L 107.722 57.596 C 90.111 110.428 90.111 180.872 107.722 233.705 L 10.862 145.652 Z" style="fill: rgb(253, 2, 2);"/>
  <path d="M 58.831 292.367 L 58.903 290.423 Q 58.903 286.535 62.719 286.535 Q 66.391 286.535 66.391 291.071 L 66.319 292.439 Q 66.175 294.311 66.067 295.931 Q 65.959 297.551 65.959 298.559 L 66.463 304.895 L 66.463 305.471 Q 66.463 310.799 61.639 310.799 Q 59.479 310.799 58.147 309.611 Q 56.815 308.423 56.815 306.479 L 56.743 302.807 Q 56.743 301.511 55.843 299.855 Q 54.943 298.199 53.827 297.335 Q 52.711 296.471 50.515 295.823 Q 48.319 295.175 46.375 295.175 Q 43.639 295.175 41.047 296.615 Q 38.455 298.055 36.871 300.431 Q 35.575 302.591 34.783 306.011 Q 33.991 309.431 33.991 313.319 Q 33.991 314.399 34.099 315.767 Q 34.207 317.135 34.531 319.475 Q 34.855 321.815 35.467 323.723 Q 36.079 325.631 37.159 327.215 Q 38.599 329.447 41.551 330.887 Q 44.503 332.327 47.671 332.327 Q 51.559 332.327 54.547 330.131 Q 57.535 327.935 57.535 325.055 L 57.607 321.311 Q 57.607 316.631 62.791 316.631 Q 65.527 316.631 66.679 317.927 Q 67.831 319.223 67.831 322.463 Q 67.831 331.247 62.431 336.071 Q 57.031 340.895 47.023 340.895 Q 40.903 340.895 36.619 339.203 Q 32.335 337.511 29.095 333.839 Q 22.327 326.207 22.327 314.039 Q 22.327 301.727 28.555 294.131 Q 34.783 286.535 44.791 286.535 Q 48.535 286.535 51.919 287.687 Q 54.151 288.407 55.375 289.235 Q 56.599 290.063 58.831 292.367 Z M 86.116 307.271 Q 86.908 308.783 86.908 309.647 Q 86.908 311.663 85.252 313.175 Q 83.596 314.687 81.292 314.687 Q 78.7 314.687 77.008 312.995 Q 75.316 311.303 75.316 308.711 Q 75.316 305.687 78.268 303.023 Q 80.068 301.583 81.868 300.935 Q 86.476 299.279 93.1 299.279 Q 100.804 299.279 104.188 302.375 Q 107.572 305.471 107.572 312.743 L 107.572 329.303 Q 107.572 330.959 108.112 331.571 Q 108.652 332.183 110.092 332.183 L 111.964 332.183 Q 112.684 332.183 113.404 332.687 Q 114.916 333.623 114.916 335.999 Q 114.916 337.511 114.124 338.735 Q 113.26 339.743 111.928 340.139 Q 110.596 340.535 107.932 340.535 Q 104.116 340.535 102.46 339.455 Q 100.804 338.375 99.94 335.135 Q 98.572 336.647 97.564 337.367 Q 96.556 338.087 95.044 338.879 Q 91.156 340.679 86.548 340.679 Q 73.228 340.679 73.228 328.583 Q 73.228 323.471 75.964 321.095 Q 76.54 320.519 77.332 319.979 Q 78.124 319.439 79.276 318.863 Q 80.428 318.287 81.904 317.891 Q 83.38 317.495 86.404 316.847 L 90.148 316.199 Q 93.028 315.623 94.18 315.191 Q 95.332 314.759 96.124 314.039 Q 97.42 312.887 97.42 310.583 Q 97.42 308.351 95.908 307.055 Q 94.396 305.759 91.732 305.759 Q 88.708 305.759 86.116 307.271 Z M 97.636 324.263 L 97.492 320.375 Q 95.908 321.383 95.152 321.671 Q 94.396 321.959 92.596 322.391 Q 89.356 323.183 88.996 323.255 Q 85.756 323.903 84.46 325.019 Q 83.164 326.135 83.164 328.295 Q 83.164 332.759 88.852 332.759 Q 92.74 332.759 95.188 330.455 Q 97.636 328.151 97.636 324.551 Z M 139.534 307.343 Q 136.582 309.503 135.646 311.879 Q 134.35 315.047 134.35 318.647 L 134.35 329.663 Q 134.35 332.831 135.862 332.831 Q 136.798 332.831 138.31 332.327 L 139.462 332.255 Q 140.83 332.255 141.694 333.335 Q 142.558 334.415 142.558 336.215 Q 142.558 340.247 138.238 340.247 Q 137.518 340.247 137.23 340.103 L 134.566 339.887 L 129.67 339.671 Q 128.158 339.671 127.222 339.743 Q 122.47 340.103 121.966 340.103 Q 121.462 340.247 120.526 340.247 Q 116.494 340.247 116.494 335.999 Q 116.494 334.343 117.358 333.263 Q 118.222 332.183 119.59 332.183 L 120.814 332.327 L 122.758 332.831 Q 124.414 332.831 124.414 329.663 L 124.414 312.383 Q 124.414 308.063 122.398 308.063 Q 121.678 308.063 121.246 308.207 L 119.518 308.351 Q 116.494 308.351 116.494 304.391 Q 116.494 299.927 120.526 299.927 L 121.246 299.927 L 124.27 300.215 Q 125.062 300.287 127.078 299.999 Q 128.158 299.711 129.166 299.711 Q 130.678 299.711 131.254 300.467 Q 131.83 301.223 131.83 303.311 L 131.902 307.631 Q 133.342 305.039 134.314 303.815 Q 135.286 302.591 136.798 301.439 Q 140.038 299.207 143.566 299.207 Q 146.446 299.207 148.246 300.719 Q 150.046 302.231 150.046 304.751 Q 150.046 307.127 148.462 308.783 Q 146.878 310.439 144.574 310.439 Q 142.99 310.439 141.91 309.791 Q 140.83 309.143 139.534 307.343 Z M 172.725 307.343 Q 169.773 309.503 168.837 311.879 Q 167.541 315.047 167.541 318.647 L 167.541 329.663 Q 167.541 332.831 169.053 332.831 Q 169.989 332.831 171.501 332.327 L 172.653 332.255 Q 174.021 332.255 174.885 333.335 Q 175.749 334.415 175.749 336.215 Q 175.749 340.247 171.429 340.247 Q 170.709 340.247 170.421 340.103 L 167.757 339.887 L 162.861 339.671 Q 161.349 339.671 160.413 339.743 Q 155.661 340.103 155.157 340.103 Q 154.653 340.247 153.717 340.247 Q 149.685 340.247 149.685 335.999 Q 149.685 334.343 150.549 333.263 Q 151.413 332.183 152.781 332.183 L 154.005 332.327 L 155.949 332.831 Q 157.605 332.831 157.605 329.663 L 157.605 312.383 Q 157.605 308.063 155.589 308.063 Q 154.869 308.063 154.437 308.207 L 152.709 308.351 Q 149.685 308.351 149.685 304.391 Q 149.685 299.927 153.717 299.927 L 154.437 299.927 L 157.461 300.215 Q 158.253 300.287 160.269 299.999 Q 161.349 299.711 162.357 299.711 Q 163.869 299.711 164.445 300.467 Q 165.021 301.223 165.021 303.311 L 165.093 307.631 Q 166.533 305.039 167.505 303.815 Q 168.477 302.591 169.989 301.439 Q 173.229 299.207 176.757 299.207 Q 179.637 299.207 181.437 300.719 Q 183.237 302.231 183.237 304.751 Q 183.237 307.127 181.653 308.783 Q 180.069 310.439 177.765 310.439 Q 176.181 310.439 175.101 309.791 Q 174.021 309.143 172.725 307.343 Z M 196.699 322.031 Q 195.619 322.031 195.367 322.283 Q 195.115 322.535 195.115 323.615 Q 195.115 327.287 197.995 330.095 Q 200.875 332.903 204.763 332.903 Q 209.083 332.903 212.323 328.511 L 213.475 326.999 Q 214.051 326.207 214.951 325.595 Q 215.851 324.983 217.219 324.983 Q 219.163 324.983 220.387 326.063 Q 221.611 327.143 221.611 329.015 Q 221.611 330.239 221.035 331.607 Q 219.019 335.927 214.483 338.375 Q 209.947 340.823 203.899 340.823 Q 195.187 340.823 189.967 335.171 Q 184.747 329.519 184.747 320.087 Q 184.747 310.583 190.111 304.859 Q 195.475 299.135 204.331 299.135 Q 212.467 299.135 217.363 304.031 Q 222.259 308.927 222.259 317.063 Q 222.259 319.871 221.611 320.879 Q 221.323 321.527 220.747 321.779 Q 220.171 322.031 218.875 322.031 Z M 195.331 314.471 Q 195.331 314.831 195.439 315.047 Q 195.547 315.263 196.483 315.263 L 211.099 315.263 Q 212.035 315.263 212.251 315.119 Q 212.467 314.975 212.467 314.327 Q 212.467 312.887 211.531 310.943 Q 210.595 308.999 209.371 307.847 Q 207.355 306.191 204.043 306.191 Q 200.515 306.191 197.923 308.639 Q 195.331 311.087 195.331 314.471 Z M 249.587 291.143 L 248.003 291.071 Q 243.179 291.071 243.179 296.111 L 243.179 299.639 Q 243.179 300.215 243.899 300.215 L 248.723 300.215 Q 250.163 300.215 251.207 301.259 Q 252.251 302.303 252.251 303.815 Q 252.251 305.327 251.243 306.335 Q 250.235 307.343 248.723 307.343 L 244.115 307.343 Q 243.467 307.343 243.467 307.991 L 243.467 329.663 Q 243.467 332.831 245.051 332.831 Q 245.771 332.831 246.203 332.759 Q 246.635 332.687 247.931 332.327 L 249.155 332.255 Q 250.523 332.255 251.387 333.335 Q 252.251 334.415 252.251 336.215 Q 252.251 340.247 247.859 340.247 L 246.779 340.103 L 244.187 339.887 L 239.003 339.671 Q 235.403 339.671 231.083 340.103 Q 230.579 340.247 229.643 340.247 Q 225.611 340.247 225.611 335.999 Q 225.611 334.343 226.475 333.263 Q 227.339 332.183 228.707 332.183 L 229.931 332.327 L 231.875 332.831 Q 233.531 332.831 233.531 329.663 L 233.531 307.991 Q 233.531 307.343 232.883 307.343 L 230.147 307.343 Q 228.563 307.343 227.483 306.335 Q 226.403 305.327 226.403 303.815 Q 226.403 302.375 227.483 301.295 Q 228.563 300.215 230.147 300.215 L 232.955 300.215 Q 233.531 300.215 233.531 299.639 L 233.531 296.039 Q 233.531 290.855 237.419 287.759 Q 241.307 284.663 247.787 284.663 Q 253.187 284.663 256.319 286.643 Q 259.451 288.623 259.451 291.935 Q 259.451 294.095 258.083 295.463 Q 256.715 296.831 254.483 296.831 Q 252.179 296.831 250.847 295.499 Q 249.515 294.167 249.515 291.935 Z M 254.695 320.087 Q 254.695 310.223 259.807 304.607 Q 264.919 298.991 274.063 298.991 Q 283.135 298.991 288.247 304.535 Q 293.359 310.079 293.359 319.943 Q 293.359 329.375 288.571 335.135 Q 283.783 340.895 274.063 340.895 Q 264.559 340.895 259.627 335.171 Q 254.695 329.447 254.695 320.087 Z M 274.063 307.055 Q 265.063 307.055 265.063 320.087 Q 265.063 326.063 266.791 329.015 Q 267.727 330.743 269.779 331.859 Q 271.831 332.975 274.063 332.975 Q 276.367 332.975 278.347 331.931 Q 280.327 330.887 281.407 329.015 Q 283.135 325.919 283.135 319.943 Q 283.135 307.055 274.063 307.055 Z M 330.765 334.847 Q 327.885 338.087 324.825 339.491 Q 321.765 340.895 317.661 340.895 Q 304.053 340.895 304.053 326.927 L 304.125 312.383 Q 304.125 308.063 302.253 308.063 Q 301.533 308.063 301.173 308.207 L 299.445 308.351 Q 296.421 308.351 296.421 304.175 Q 296.421 299.927 300.885 299.927 L 303.405 300.071 Q 304.197 300.143 304.917 300.179 Q 305.637 300.215 306.357 300.215 L 307.293 300.215 Q 307.869 300.215 308.733 300.071 L 311.325 299.711 L 311.901 299.711 Q 313.341 299.711 313.773 300.503 Q 314.205 301.295 314.205 304.031 L 314.061 323.975 L 314.061 324.335 Q 314.061 332.831 320.541 332.831 Q 323.637 332.831 326.229 330.671 Q 326.733 330.167 327.201 329.627 Q 327.669 329.087 327.957 328.583 Q 328.605 327.575 328.821 326.495 Q 329.037 325.415 329.037 323.039 L 329.037 312.239 Q 329.037 308.063 326.949 308.063 L 325.869 308.207 L 324.213 308.351 Q 321.117 308.351 321.117 304.175 Q 321.117 299.927 325.653 299.927 L 328.173 300.071 Q 328.965 300.143 329.685 300.179 Q 330.405 300.215 331.125 300.215 L 332.061 300.215 Q 332.421 300.215 332.853 300.215 Q 333.357 300.071 333.573 300.071 L 336.093 299.711 L 336.597 299.711 Q 338.109 299.711 338.757 300.575 Q 339.117 301.223 339.117 303.959 L 339.117 304.247 L 338.901 329.663 Q 338.901 332.831 340.629 332.831 Q 341.133 332.831 342.573 332.327 L 343.725 332.183 Q 345.165 332.183 345.993 333.299 Q 346.821 334.415 346.821 336.359 Q 346.821 340.103 343.149 340.103 L 339.765 339.959 Q 336.813 339.599 336.525 339.671 L 333.573 340.103 L 333.141 340.103 Q 330.765 340.103 330.765 337.583 L 330.765 336.503 Z M 371.438 307.343 Q 368.486 309.503 367.55 311.879 Q 366.254 315.047 366.254 318.647 L 366.254 329.663 Q 366.254 332.831 367.766 332.831 Q 368.702 332.831 370.214 332.327 L 371.366 332.255 Q 372.734 332.255 373.598 333.335 Q 374.462 334.415 374.462 336.215 Q 374.462 340.247 370.142 340.247 Q 369.422 340.247 369.134 340.103 L 366.47 339.887 L 361.574 339.671 Q 360.062 339.671 359.126 339.743 Q 354.374 340.103 353.87 340.103 Q 353.366 340.247 352.43 340.247 Q 348.398 340.247 348.398 335.999 Q 348.398 334.343 349.262 333.263 Q 350.126 332.183 351.494 332.183 L 352.718 332.327 L 354.662 332.831 Q 356.318 332.831 356.318 329.663 L 356.318 312.383 Q 356.318 308.063 354.302 308.063 Q 353.582 308.063 353.15 308.207 L 351.422 308.351 Q 348.398 308.351 348.398 304.391 Q 348.398 299.927 352.43 299.927 L 353.15 299.927 L 356.174 300.215 Q 356.966 300.287 358.982 299.999 Q 360.062 299.711 361.07 299.711 Q 362.582 299.711 363.158 300.467 Q 363.734 301.223 363.734 303.311 L 363.806 307.631 Q 365.246 305.039 366.218 303.815 Q 367.19 302.591 368.702 301.439 Q 371.942 299.207 375.47 299.207 Q 378.35 299.207 380.15 300.719 Q 381.95 302.231 381.95 304.751 Q 381.95 307.127 380.366 308.783 Q 378.782 310.439 376.478 310.439 Q 374.894 310.439 373.814 309.791 Q 372.734 309.143 371.438 307.343 Z" style="fill: rgb(0, 82, 156);"/>
</svg>