<?xml version="1.0" encoding="utf-8"?>
<svg viewBox="0 -256 1792 1792" id="svg2989" version="1.1" width="100%" height="100%" xmlns="http://www.w3.org/2000/svg">
  <g transform="matrix(-1, 0, 0, -1, 1732.338989, 1209.491455)" id="g2991" style="">
    <path d="M 640,0 Q 640,-53 602.5,-90.5 565,-128 512,-128 459,-128 421.5,-90.5 384,-53 384,0 384,53 421.5,90.5 459,128 512,128 565,128 602.5,90.5 640,53 640,0 z m 896,0 q 0,-53 -37.5,-90.5 -37.5,-37.5 -90.5,-37.5 -53,0 -90.5,37.5 Q 1280,-53 1280,0 q 0,53 37.5,90.5 37.5,37.5 90.5,37.5 53,0 90.5,-37.5 Q 1536,53 1536,0 z m 128,1088 V 576 q 0,-24 -16,-42.5 Q 1632,515 1607,512 L 563,390 q 1,-7 4.5,-21.5 3.5,-14.5 6,-26.5 2.5,-12 2.5,-22 0,-16 -24,-64 h 920 q 26,0 45,-19 19,-19 19,-45 0,-26 -19,-45 -19,-19 -45,-19 H 448 q -26,0 -45,19 -19,19 -19,45 0,14 11,39.5 11,25.5 29.5,59.5 18.5,34 20.5,38 L 268,1152 H 64 q -26,0 -45,19 -19,19 -19,45 0,26 19,45 19,19 45,19 h 256 q 16,0 28.5,-6.5 12.5,-6.5 20,-15.5 7.5,-9 13,-24.5 5.5,-15.5 7.5,-26.5 2,-11 5.5,-29.5 3.5,-18.5 4.5,-25.5 h 1201 q 26,0 45,-19 19,-19 19,-45 z" id="path2993" style="fill: rgba(175, 169, 169, 0.8); stroke: rgb(0, 0, 0); stroke-width: 2px; stroke-linejoin: round; stroke-linecap: round;"/>
    <path d="M 602.854 90.854 C 581.867 111.84 557.174 124.073 528.901 127.5 L 1391.099 127.5 C 1362.826 124.073 1338.133 111.84 1317.146 90.854 C 1292.079 65.786 1279.5 35.429 1279.5 0 C 1279.5 -35.429 1292.079 -65.786 1317.146 -90.854 C 1342.214 -115.921 1372.571 -128.5 1408 -128.5 C 1443.429 -128.5 1473.786 -115.921 1498.854 -90.854 C 1523.921 -65.786 1536.5 -35.429 1536.5 0 C 1536.5 35.429 1523.921 65.786 1498.854 90.854 C 1477.867 111.84 1453.174 124.073 1424.901 127.5 L 1472 127.5 C 1489.431 127.52 1504.62 133.913 1517.354 146.646 C 1530.087 159.38 1536.5 174.569 1536.5 192 C 1536.5 209.431 1530.087 224.62 1517.354 237.354 C 1504.62 250.087 1489.431 256.48 1472 256.5 L 552.809 256.5 C 568.578 288.124 576.5 309.246 576.5 320 C 576.5 326.695 575.661 334.079 573.989 342.102 C 572.322 350.106 570.32 358.947 567.986 368.617 C 565.654 378.277 564.267 384.907 563.569 389.563 L 1607.06 511.504 C 1623.813 513.53 1637.652 520.77 1648.378 533.173 C 1659.101 545.572 1664.484 559.912 1664.5 576 L 1664.5 1088 C 1664.48 1105.431 1658.087 1120.62 1645.354 1133.354 C 1632.62 1146.087 1617.431 1152.48 1600 1152.5 L 399.433 1152.5 C 398.737 1157.257 397.325 1165.257 394.991 1177.593 C 392.658 1189.926 390.825 1199.757 389.492 1207.089 C 388.154 1214.446 385.643 1223.319 381.971 1233.667 C 378.292 1244.035 373.917 1252.281 368.884 1258.32 C 363.85 1264.361 357.104 1269.59 348.731 1273.944 C 340.341 1278.306 330.722 1280.494 320 1280.5 L 64 1280.5 C 46.569 1280.48 31.38 1274.087 18.646 1261.354 C 5.913 1248.62 -0.5 1233.431 -0.5 1216 C -0.5 1198.569 5.913 1183.38 18.646 1170.646 C 31.38 1157.913 46.569 1151.52 64 1151.5 L 267.596 1151.5 L 444.474 329.067 C 442.971 326.096 436.394 313.905 424.061 291.239 C 411.723 268.564 401.879 248.71 394.541 231.698 C 387.194 214.667 383.5 201.4 383.5 192 C 383.5 174.569 389.913 159.38 402.646 146.646 C 415.38 133.913 430.569 127.52 448 127.5 L 495.099 127.5 C 466.826 124.073 442.133 111.84 421.146 90.854 C 396.079 65.786 383.5 35.429 383.5 0 C 383.5 -35.429 396.079 -65.786 421.146 -90.854 C 446.214 -115.921 476.571 -128.5 512 -128.5 C 547.429 -128.5 577.786 -115.921 602.854 -90.854 C 627.921 -65.786 640.5 -35.429 640.5 0 C 640.5 35.429 627.921 65.786 602.854 90.854 Z M 639.5 0 C 639.5 -35.238 627.079 -65.214 602.146 -90.146 C 577.214 -115.079 547.238 -127.5 512 -127.5 C 476.762 -127.5 446.786 -115.079 421.854 -90.146 C 396.921 -65.214 384.5 -35.238 384.5 0 C 384.5 35.238 396.921 65.214 421.854 90.146 C 446.786 115.079 476.762 127.5 512 127.5 C 547.238 127.5 577.214 115.079 602.146 90.146 C 627.079 65.214 639.5 35.238 639.5 0 Z M 1535.5 0 C 1535.5 -35.238 1523.079 -65.214 1498.146 -90.146 C 1473.214 -115.079 1443.238 -127.5 1408 -127.5 C 1372.762 -127.5 1342.786 -115.079 1317.854 -90.146 C 1292.921 -65.214 1280.5 -35.238 1280.5 0 C 1280.5 35.238 1292.921 65.214 1317.854 90.146 C 1342.786 115.079 1372.762 127.5 1408 127.5 C 1443.238 127.5 1473.214 115.079 1498.146 90.146 C 1523.079 65.214 1535.5 35.238 1535.5 0 Z M 1663.5 1088 L 1663.5 576 C 1663.516 560.088 1658.232 546.095 1647.622 533.827 C 1637.015 521.563 1623.521 514.47 1606.942 512.497 L 562.432 390.437 L 562.505 389.929 C 563.174 385.247 564.679 378.057 567.014 368.383 C 569.346 358.719 571.345 349.894 573.011 341.898 C 574.672 333.921 575.5 326.638 575.5 320 C 575.5 309.421 567.542 288.2 551.553 256.224 L 551.191 255.5 L 1472 255.5 C 1489.236 255.52 1504.046 249.247 1516.646 236.646 C 1529.247 224.046 1535.5 209.236 1535.5 192 C 1535.5 174.764 1529.247 159.954 1516.646 147.354 C 1504.046 134.753 1489.236 128.48 1472 128.5 L 448 128.5 C 430.764 128.48 415.954 134.753 403.354 147.354 C 390.753 159.954 384.5 174.764 384.5 192 C 384.5 201.266 388.139 214.333 395.459 231.302 C 402.787 248.29 412.61 268.103 424.939 290.761 C 437.273 313.428 444.11 326.103 445.447 328.776 L 445.526 328.933 L 268.404 1152.5 L 64 1152.5 C 46.764 1152.48 31.954 1158.753 19.354 1171.354 C 6.753 1183.954 0.5 1198.764 0.5 1216 C 0.5 1233.236 6.753 1248.046 19.354 1260.646 C 31.954 1273.247 46.764 1279.52 64 1279.5 L 320 1279.5 C 330.611 1279.506 339.992 1277.361 348.269 1273.056 C 356.563 1268.744 363.15 1263.639 368.116 1257.68 C 373.083 1251.719 377.374 1243.632 381.029 1233.333 C 384.69 1223.015 387.179 1214.22 388.508 1206.911 C 389.842 1199.576 391.675 1189.741 394.009 1177.407 C 396.341 1165.077 397.84 1156.588 398.505 1151.929 L 398.566 1151.5 L 1600 1151.5 C 1617.236 1151.52 1632.046 1145.247 1644.646 1132.646 C 1657.247 1120.046 1663.52 1105.236 1663.5 1088 Z" style="fill: rgba(175, 169, 169, 0.8); stroke: rgb(0, 0, 0); stroke-width: 2px; stroke-linejoin: round; stroke-linecap: round;"/>
  </g>
</svg>