<?xml version="1.0" encoding="utf-8"?>
<svg viewBox="0 0 500 500" xmlns="http://www.w3.org/2000/svg">
  <path d="M 418.698 210.45 L 403.498 210.45 C 391.098 210.45 380.698 199.75 380.698 187.05 C 380.698 180.65 383.398 174.85 388.198 170.55 L 397.998 160.95 C 407.698 151.35 407.698 135.65 397.998 126.05 L 375.698 103.95 C 371.298 99.55 364.798 96.95 358.198 96.95 C 351.598 96.95 345.198 99.55 340.698 103.95 L 331.298 113.35 C 326.798 118.35 320.798 121.05 314.298 121.05 C 301.498 121.05 290.798 110.65 290.798 98.35 L 290.798 83.05 C 290.798 69.55 279.898 57.95 266.298 57.95 L 235.898 57.95 C 222.298 57.95 211.498 69.45 211.498 83.05 L 211.498 98.25 C 211.498 110.55 200.798 120.95 187.998 120.95 C 181.598 120.95 175.698 118.25 171.398 113.55 L 161.698 103.95 C 157.298 99.45 150.798 96.95 144.198 96.95 C 137.598 96.95 131.198 99.55 126.698 103.95 L 104.198 125.95 C 94.598 135.55 94.598 151.25 104.198 160.75 L 113.598 170.15 C 118.598 174.65 121.398 180.65 121.398 187.05 C 121.398 199.85 110.998 210.45 98.598 210.45 L 83.398 210.45 C 69.698 210.45 58.198 221.15 58.198 234.75 L 58.198 249.95 L 58.198 265.15 C 58.198 278.65 69.698 289.45 83.398 289.45 L 98.598 289.45 C 110.998 289.45 121.398 300.15 121.398 312.85 C 121.398 319.25 118.598 325.25 113.598 329.75 L 104.198 339.05 C 94.598 348.65 94.598 364.35 104.198 373.85 L 126.498 396.05 C 130.898 400.55 137.398 403.05 143.998 403.05 C 150.598 403.05 156.998 400.45 161.498 396.05 L 171.198 386.45 C 175.398 381.75 181.398 379.05 187.798 379.05 C 200.598 379.05 211.298 389.45 211.298 401.75 L 211.298 416.95 C 211.298 430.45 222.098 442.05 235.798 442.05 L 266.198 442.05 C 279.798 442.05 290.598 430.55 290.598 416.95 L 290.598 401.75 C 290.598 389.45 301.298 379.05 314.098 379.05 C 320.498 379.05 326.498 381.85 331.098 386.75 L 340.498 396.15 C 344.998 400.55 351.398 403.15 357.998 403.15 C 364.598 403.15 370.998 400.55 375.498 396.15 L 397.798 373.95 C 407.398 364.35 407.398 348.65 397.798 339.05 L 387.998 329.45 C 383.198 325.15 380.498 319.25 380.498 312.95 C 380.498 300.15 390.898 289.55 403.298 289.55 L 418.498 289.55 C 432.098 289.55 441.798 278.85 441.798 265.25 L 441.798 249.95 L 441.798 234.75 C 441.998 221.15 432.298 210.45 418.698 210.45 Z M 330.998 249.95 C 330.998 294.05 295.298 329.95 250.998 329.95 C 206.698 329.95 170.998 294.05 170.998 249.95 C 170.998 205.85 206.698 169.95 250.998 169.95 C 295.298 169.95 330.998 205.85 330.998 249.95 Z" style="fill: rgb(216, 216, 216); stroke: rgb(0, 0, 0);"/>
</svg>