<?xml version="1.0" encoding="utf-8"?>
<svg id="svg" version="1.1" width="400" height="400" viewBox="0, 0, 400,400" xmlns="http://www.w3.org/2000/svg">
  <g id="svgg">
    <path id="path2" d="M 105.298 28.87 C 100.462 30.031 98.631 32.25 89.708 47.772 C 85.959 54.292 81.253 62.413 79.25 65.818 C 77.247 69.223 71.832 78.577 67.219 86.603 C 62.605 94.63 55.784 106.471 52.059 112.916 C 48.335 119.362 41.619 131.004 37.135 138.787 C 25.567 158.866 19.593 169.196 15.142 176.819 C 0.691 201.569 0.691 198.504 15.142 223.254 C 19.593 230.877 25.567 241.208 37.135 261.286 C 41.619 269.07 48.335 280.711 52.059 287.157 C 55.784 293.603 62.605 305.443 67.219 313.47 C 71.832 321.497 77.247 330.85 79.25 334.255 C 81.253 337.66 85.959 345.781 89.708 352.302 C 97.45 365.769 99.521 368.629 102.715 370.268 L 104.926 371.403 L 199.786 371.403 L 294.645 371.403 L 296.856 370.268 C 300.05 368.629 302.121 365.769 309.863 352.302 C 313.613 345.781 318.318 337.66 320.321 334.255 C 322.325 330.85 327.739 321.497 332.352 313.47 C 336.966 305.443 343.787 293.603 347.512 287.157 C 351.236 280.711 357.952 269.07 362.436 261.286 C 374.004 241.208 379.978 230.877 384.429 223.254 C 393.374 207.934 395.696 203.15 395.696 200.037 C 395.696 196.923 393.374 192.139 384.429 176.819 C 379.978 169.196 374.004 158.866 362.436 138.787 C 357.952 131.004 351.236 119.362 347.512 112.916 C 343.787 106.471 336.966 94.63 332.352 86.603 C 327.739 78.577 322.325 69.223 320.321 65.818 C 318.318 62.413 313.613 54.292 309.863 47.772 C 302.121 34.304 300.05 31.444 296.856 29.805 L 294.645 28.67 L 200.67 28.603 C 148.984 28.565 106.066 28.686 105.298 28.87" stroke="none" fill-rule="evenodd" style="fill: rgb(200, 20, 63);"/>
    <path id="path-1" d="M 114.342 45.215 C 109.968 46.265 108.312 48.272 100.241 62.311 C 96.85 68.209 92.594 75.554 90.782 78.634 C 88.97 81.714 84.073 90.174 79.9 97.434 C 75.727 104.694 69.557 115.404 66.188 121.234 C 62.82 127.064 56.745 137.594 52.689 144.634 C 42.226 162.795 36.823 172.139 32.797 179.034 C 19.726 201.42 19.726 198.648 32.797 221.034 C 36.823 227.929 42.226 237.273 52.689 255.434 C 56.745 262.474 62.82 273.004 66.188 278.834 C 69.557 284.664 75.727 295.374 79.9 302.634 C 84.073 309.894 88.97 318.354 90.782 321.434 C 92.594 324.514 96.85 331.859 100.241 337.757 C 107.244 349.938 109.117 352.525 112.006 354.008 L 114.006 355.034 L 199.806 355.034 L 285.606 355.034 L 287.606 354.008 C 290.495 352.525 292.368 349.938 299.371 337.757 C 302.762 331.859 307.018 324.514 308.83 321.434 C 310.642 318.354 315.539 309.894 319.712 302.634 C 323.885 295.374 330.055 284.664 333.424 278.834 C 336.792 273.004 342.867 262.474 346.923 255.434 C 357.386 237.273 362.789 227.929 366.815 221.034 C 374.906 207.177 377.006 202.85 377.006 200.034 C 377.006 197.218 374.906 192.891 366.815 179.034 C 362.789 172.139 357.386 162.795 346.923 144.634 C 342.867 137.594 336.792 127.064 333.424 121.234 C 330.055 115.404 323.885 104.694 319.712 97.434 C 315.539 90.174 310.642 81.714 308.83 78.634 C 307.018 75.554 302.762 68.209 299.371 62.311 C 292.368 50.13 290.495 47.543 287.606 46.06 L 285.606 45.034 L 200.606 44.973 C 153.856 44.939 115.037 45.048 114.342 45.215" stroke="none" fill="#0047b9" fill-rule="evenodd"/>
    <text style="fill: rgb(255, 255, 255); font-family: Balloon, sans-serif; font-size: 54px; text-anchor: middle; white-space: pre;" transform="matrix(1, 0, 0, 1, 119.08683, 3.138824)"><tspan x="80.781" y="188.551">SUPER</tspan><tspan x="80.781" dy="1em">​</tspan><tspan>CARMELA</tspan></text>
  </g>
</svg>