<?xml version="1.0" encoding="utf-8"?>
<svg viewBox="0 0 500 500" xmlns="http://www.w3.org/2000/svg" xmlns:bx="https://boxy-svg.com">
  <path d="M 224.51 122.548 H 275.49 V 224.51 H 377.452 V 275.49 H 275.49 V 377.452 H 224.51 V 275.49 H 122.548 V 224.51 H 224.51 Z" style="fill: rgb(216, 216, 216); stroke: rgb(0, 0, 0);" bx:shape="cross 122.548 122.548 254.903 254.903 50.981 50.981 0.5 1@17b1f281"/>
  <path d="M 444.813 250 C 444.813 357.592 357.592 444.813 250 444.813 C 142.408 444.813 55.187 357.592 55.187 250 C 55.187 142.408 142.408 55.187 250 55.187 C 357.592 55.187 444.813 142.408 444.813 250 Z M 250 95.492 C 164.668 95.492 95.492 164.668 95.492 250 C 95.492 335.332 164.668 404.508 250 404.508 C 335.332 404.508 404.508 335.332 404.508 250 C 404.508 164.668 335.332 95.492 250 95.492 Z" style="fill: rgb(216, 216, 216); stroke: rgb(0, 0, 0);"/>
</svg>