<?xml version="1.0" encoding="utf-8"?>
<svg id="svg" version="1.1" width="400" height="400" viewBox="0, 0, 400,400" xmlns="http://www.w3.org/2000/svg">
  <g>
    <g>
      <title>Carpeta</title>
      <rect x="36.932" y="61.788" width="214.179" height="291.325" style="stroke-linejoin: round; stroke-width: 7px; stroke-linecap: round; stroke: rgb(90, 0, 171); fill: rgb(255, 255, 255);" rx="20.935" ry="20.935">
        <title>Sombra</title>
      </rect>
      <rect x="55.753" y="61.788" width="229.64" height="291.325" style="stroke-linejoin: round; stroke-width: 7px; stroke-linecap: round; stroke: rgb(90, 0, 171); fill: rgb(158, 181, 233);" rx="20.935" ry="20.935">
        <title>Carpeta</title>
      </rect>
      <rect x="80.805" y="94.783" width="179.536" height="227.762" style="stroke-linejoin: round; stroke-width: 7px; stroke-linecap: round; stroke: rgb(90, 0, 171); fill: rgb(226, 242, 255);" rx="9.305" ry="9.305">
        <title>Hoja Checkbox</title>
      </rect>
      <path d="M 90.047 319.498 C 85.673 319.498 83.834 318.526 83.834 314.169 L 83.834 120.098 C 170.728 121.983 240.585 192.744 240.585 279.755 C 240.585 293.476 238.849 306.793 235.582 319.498 L 90.047 319.498 Z" style="stroke-linejoin: round; stroke-linecap: round; fill: rgb(253, 253, 253); stroke-width: 6px; stroke: rgba(90, 0, 171, 0);">
        <title>Reflejo Carpeta</title>
      </path>
      <path d="M 143.151 151.403 L 222.594 151.403 L 143.151 151.403 Z" style="fill: rgb(216, 216, 216); stroke-width: 3px; stroke: rgb(90, 0, 171); transform-box: fill-box; transform-origin: 50% 50%;" transform="matrix(1, 0, 0, 1, 0, -0.000059)">
        <title>Primera Linea</title>
      </path>
      <rect x="106.489" y="140.481" width="22.154" height="21.847" style="fill: rgba(255, 255, 255, 0); stroke: rgb(90, 0, 171); stroke-width: 5px;" rx="2.908" ry="2.908">
        <title>Primer Checkbox</title>
      </rect>
      <path style="fill: none; stroke-width: 4.21724px; stroke: rgb(61, 179, 86);" d="M 111.663 149.275 L 117.787 156.366 L 131.11 136.119">
        <title>vMark</title>
      </path>
      <path d="M 143.151 196.283 L 222.594 196.283 L 143.151 196.283 Z" style="fill: rgb(216, 216, 216); stroke-width: 3px; stroke: rgb(90, 0, 171); transform-box: fill-box; transform-origin: 50% 50%;">
        <title>Segunda Linea</title>
      </path>
      <rect x="106.489" y="185.359" width="22.154" height="21.847" style="fill: rgba(255, 255, 255, 0); stroke: rgb(90, 0, 171); stroke-width: 5px;" rx="2.908" ry="2.908">
        <title>Segundo Checbox</title>
      </rect>
      <path style="fill: none; stroke-width: 4.21724px; stroke: rgb(61, 179, 86);" d="M 111.842 194.315 L 117.966 201.406 L 131.289 181.159">
        <title>vMark</title>
      </path>
      <path d="M 143.151 241.161 L 222.594 241.161 L 143.151 241.161 Z" style="fill: rgb(216, 216, 216); stroke-width: 3px; stroke: rgb(90, 0, 171); transform-box: fill-box; transform-origin: 50% 50%;" transform="matrix(1, 0, 0, 1.000001, 0, -0.000117)">
        <title>Tercera Linea</title>
      </path>
      <rect x="106.489" y="230.238" width="22.154" height="21.847" style="fill: rgba(255, 255, 255, 0); stroke: rgb(90, 0, 171); stroke-width: 5px;" rx="2.908" ry="2.908">
        <title>Tercer Checkbox</title>
      </rect>
      <path style="fill: none; stroke-width: 4.21724px; stroke: rgb(61, 179, 86);" d="M 111.842 239.194 L 117.966 246.285 L 131.289 226.038">
        <title>vMark</title>
      </path>
      <path d="M 143.151 286.04 L 222.594 286.04 L 143.151 286.04 Z" style="fill: rgb(216, 216, 216); stroke-width: 3px; stroke: rgb(90, 0, 171);">
        <title>Cuarta Linea</title>
      </path>
      <rect x="106.489" y="275.116" width="22.154" height="21.847" style="fill: rgba(255, 255, 255, 0); stroke: rgb(90, 0, 171); stroke-width: 5px;" rx="2.908" ry="2.908">
        <title>Cuarto Checkbox</title>
      </rect>
    </g>
    <g transform="matrix(0.85371, 0, 0, 0.85371, -335.181458, 1.258353)" style="">
      <title>Clip</title>
      <path d="M 624.112 56.562 C 624.112 56.571 624.112 56.58 624.112 56.589 C 624.112 56.598 624.112 56.607 624.112 56.615 C 624.112 56.624 624.112 56.632 624.112 56.641 C 624.112 56.65 624.112 56.659 624.112 56.667 C 624.112 56.676 624.112 56.685 624.112 56.693 C 624.112 56.702 624.112 56.711 624.112 56.719 C 624.112 56.728 624.112 56.736 624.112 56.745 C 624.112 56.753 624.112 56.762 624.111 56.77 C 624.111 56.779 624.111 56.788 624.111 56.796 C 624.111 56.805 624.111 56.814 624.111 56.822 C 624.111 56.831 624.111 56.84 624.111 56.848 C 624.111 56.857 624.111 56.866 624.111 56.874 C 624.111 56.883 624.111 56.891 624.111 56.9 C 624.111 56.908 624.11 56.917 624.11 56.926 C 624.11 56.935 624.11 56.943 624.11 56.952 C 624.11 56.961 624.11 56.97 624.11 56.979 L 625.354 56.978 L 626.598 56.977 L 627.842 56.976 L 629.086 56.974 L 630.33 56.973 L 631.575 56.971 L 632.819 56.97 L 634.063 56.968 L 635.308 56.967 L 636.552 56.966 L 637.796 56.965 L 639.04 56.964 L 640.284 56.963 L 641.528 56.961 L 642.772 56.96 L 644.016 56.958 C 644.549 56.958 645.075 56.987 645.593 57.045 C 646.111 57.104 646.622 57.191 647.123 57.305 C 647.625 57.419 648.117 57.561 648.6 57.728 C 649.082 57.895 649.555 58.088 650.015 58.305 C 650.476 58.523 650.926 58.765 651.362 59.03 C 651.799 59.295 652.223 59.583 652.633 59.892 C 653.043 60.202 653.439 60.533 653.819 60.883 C 654.199 61.234 654.564 61.605 654.913 61.994 C 655.262 62.384 655.594 62.792 655.908 63.217 C 656.222 63.643 656.518 64.085 656.795 64.543 C 657.072 65.001 657.33 65.475 657.567 65.963 C 657.804 66.452 658.021 66.954 658.216 67.469 C 658.411 67.985 658.584 68.513 658.734 69.052 C 658.885 69.591 659.012 70.142 659.114 70.703 C 659.217 71.264 659.295 71.835 659.347 72.415 C 659.4 72.994 659.427 73.582 659.427 74.177 L 659.427 87.021 L 659.427 99.865 L 659.427 112.709 L 659.427 125.552 L 651.051 125.561 L 642.675 125.57 L 634.299 125.579 L 625.923 125.588 L 617.548 125.597 L 609.172 125.605 L 600.796 125.614 L 592.42 125.622 L 584.044 125.631 L 575.668 125.64 L 567.292 125.649 L 558.916 125.657 L 550.541 125.666 L 542.165 125.674 L 533.789 125.683 L 525.413 125.691 L 525.413 112.848 L 525.413 100.004 L 525.413 87.16 L 525.413 74.316 C 525.413 73.721 525.44 73.133 525.493 72.554 C 525.545 71.974 525.623 71.403 525.726 70.842 C 525.829 70.281 525.956 69.73 526.106 69.19 C 526.256 68.651 526.429 68.122 526.624 67.606 C 526.819 67.091 527.036 66.588 527.273 66.099 C 527.51 65.611 527.768 65.136 528.045 64.677 C 528.322 64.219 528.618 63.776 528.932 63.35 C 529.247 62.924 529.579 62.515 529.927 62.125 C 530.276 61.735 530.641 61.363 531.021 61.011 C 531.402 60.659 531.798 60.328 532.207 60.017 C 532.617 59.707 533.041 59.419 533.478 59.153 C 533.915 58.887 534.364 58.645 534.825 58.426 C 535.286 58.208 535.759 58.013 536.241 57.845 C 536.724 57.677 537.216 57.534 537.718 57.419 C 538.219 57.304 538.73 57.215 539.248 57.156 C 539.766 57.096 540.292 57.066 540.824 57.065 L 542.068 57.064 L 543.312 57.063 L 544.556 57.062 L 545.8 57.06 L 547.044 57.059 L 548.288 57.057 L 549.532 57.056 L 550.777 57.054 L 552.021 57.053 L 553.265 57.052 L 554.509 57.051 L 555.753 57.049 L 556.997 57.048 L 558.241 57.047 L 559.485 57.046 L 560.729 57.044 C 560.729 57.036 560.729 57.027 560.729 57.018 C 560.729 57.01 560.729 57.001 560.729 56.992 C 560.729 56.983 560.729 56.974 560.728 56.966 C 560.728 56.957 560.728 56.948 560.728 56.939 C 560.728 56.931 560.728 56.922 560.728 56.914 C 560.728 56.905 560.728 56.897 560.728 56.888 C 560.728 56.879 560.728 56.87 560.728 56.862 C 560.728 56.853 560.728 56.845 560.728 56.836 C 560.727 56.828 560.727 56.819 560.727 56.81 C 560.727 56.801 560.727 56.793 560.727 56.784 C 560.727 56.775 560.727 56.766 560.727 56.758 C 560.727 56.749 560.727 56.741 560.727 56.732 C 560.727 56.724 560.727 56.715 560.727 56.706 C 560.727 56.697 560.727 56.689 560.727 56.68 C 560.727 56.672 560.727 56.663 560.727 56.654 C 560.727 56.645 560.727 56.636 560.727 56.627 C 560.727 55.404 560.782 54.195 560.891 53.003 C 560.999 51.812 561.16 50.638 561.371 49.484 C 561.582 48.33 561.843 47.197 562.151 46.086 C 562.46 44.976 562.816 43.89 563.217 42.829 C 563.618 41.769 564.064 40.734 564.552 39.729 C 565.04 38.724 565.57 37.749 566.14 36.805 C 566.709 35.862 567.318 34.951 567.964 34.075 C 568.61 33.199 569.293 32.358 570.01 31.555 C 570.727 30.753 571.478 29.988 572.26 29.265 C 573.043 28.542 573.857 27.861 574.7 27.223 C 575.543 26.585 576.415 25.992 577.313 25.445 C 578.211 24.899 579.136 24.4 580.084 23.95 C 581.031 23.501 582.003 23.101 582.995 22.755 C 583.987 22.408 585 22.115 586.032 21.878 C 587.063 21.641 588.113 21.459 589.179 21.337 C 590.244 21.215 591.325 21.152 592.419 21.151 C 593.513 21.15 594.594 21.211 595.659 21.331 C 596.725 21.451 597.774 21.63 598.806 21.865 C 599.837 22.1 600.851 22.391 601.843 22.735 C 602.835 23.079 603.807 23.477 604.755 23.924 C 605.702 24.372 606.627 24.869 607.525 25.414 C 608.423 25.958 609.295 26.55 610.138 27.186 C 610.981 27.822 611.795 28.502 612.578 29.224 C 613.361 29.945 614.112 30.708 614.829 31.509 C 615.545 32.31 616.228 33.149 616.874 34.024 C 617.519 34.899 618.128 35.809 618.698 36.751 C 619.267 37.693 619.797 38.668 620.285 39.671 C 620.773 40.675 621.219 41.709 621.62 42.768 C 622.021 43.828 622.377 44.914 622.686 46.024 C 622.995 47.134 623.256 48.267 623.468 49.42 C 623.679 50.574 623.84 51.747 623.948 52.939 C 624.056 54.13 624.112 55.339 624.112 56.562 Z M 592.127 47.213 C 590.778 47.213 589.493 47.485 588.324 47.976 C 587.156 48.467 586.103 49.177 585.219 50.055 C 584.335 50.933 583.619 51.979 583.125 53.14 C 582.63 54.301 582.357 55.578 582.357 56.918 C 582.357 58.258 582.63 59.535 583.125 60.696 C 583.619 61.857 584.335 62.902 585.219 63.78 C 586.103 64.658 587.156 65.369 588.324 65.86 C 589.493 66.351 590.778 66.622 592.127 66.622 C 593.476 66.622 594.761 66.351 595.93 65.86 C 597.099 65.369 598.152 64.658 599.036 63.78 C 599.92 62.902 600.635 61.857 601.129 60.696 C 601.624 59.535 601.897 58.258 601.897 56.918 C 601.897 55.578 601.624 54.301 601.129 53.14 C 600.635 51.979 599.92 50.933 599.036 50.055 C 598.152 49.177 597.099 48.467 595.93 47.976 C 594.761 47.485 593.476 47.213 592.127 47.213 Z" style="stroke-width: 5px; stroke: rgb(90, 0, 171); fill: rgb(255, 150, 0); stroke-linejoin: round;">
        <title>Clip</title>
      </path>
      <path d="M 542.715 76.203 L 642.041 76.203 C 650.231 76.203 656.873 81.354 656.873 87.709 L 656.873 129.328 C 656.873 135.682 650.231 140.835 642.041 140.835 L 542.715 140.835 C 534.524 140.835 527.882 135.682 527.882 129.328 L 527.882 87.709 C 527.882 81.354 534.524 76.203 542.715 76.203 Z" style="fill: rgb(255, 150, 0); stroke: rgba(0, 0, 0, 0);">
        <title>Fondo Clip</title>
      </path>
    </g>
  </g>
  <g transform="matrix(0.85371, 0, 0, 0.85371, -661.263855, 64.784302)" style="">
    <title>Cesta</title>
    <path id="path6" d="M 992.068 266.315 C 985.162 269.544 984.439 278.592 990.766 282.604 L 992.625 283.783 L 1093.101 283.783 L 1193.578 283.783 L 1195.512 282.483 C 1201.663 278.349 1201.203 269.697 1194.668 266.625 L 1192.877 265.783 L 1092.972 265.815 C 1017.647 265.84 992.822 265.963 992.068 266.315" fill-rule="evenodd" style="stroke: rgb(90, 0, 171); stroke-width: 6px; fill: rgb(162, 229, 90);">
      <title>Borde Superior Cesta</title>
    </path>
    <path id="path-3" d="M 1093.548 284.369 L 1192.885 284.369 L 1192.885 285.435 C 1192.885 286.02 1192.491 288.212 1192.009 290.304 C 1190.185 298.226 1189.434 301.627 1188.348 306.877 C 1187.22 312.341 1187 313.335 1185.725 318.735 C 1185.338 320.377 1184.852 322.617 1184.647 323.713 C 1184.44 324.808 1184.063 326.582 1183.81 327.653 C 1183.556 328.724 1183.164 330.575 1182.94 331.765 C 1182.493 334.133 1181.906 336.87 1181.266 339.556 C 1181.04 340.508 1180.725 341.969 1180.567 342.802 C 1180.41 343.636 1180.083 345.194 1179.843 346.265 C 1179.603 347.336 1179.238 348.992 1179.034 349.944 C 1178.333 353.205 1177.68 356.005 1177.218 357.735 C 1175.401 364.545 1170.935 368.58 1164.045 369.638 C 1159.433 370.347 1022.65 370.02 1020.539 369.295 C 1013.076 366.735 1010.88 363.035 1007.638 347.564 C 1006.665 342.921 1005.567 337.878 1005.198 336.354 C 1004.829 334.832 1004.358 332.689 1004.153 331.593 C 1003.946 330.498 1003.593 328.822 1003.367 327.869 C 1002.896 325.89 1002.086 322.229 1001.522 319.537 C 1001.31 318.525 1000.942 316.821 1000.704 315.75 C 1000.466 314.679 1000.076 312.926 999.838 311.854 C 999.169 308.845 998.663 306.447 998.148 303.847 C 997.888 302.537 997.471 300.59 997.218 299.518 C 996.967 298.447 996.598 296.791 996.399 295.839 C 996.2 294.887 995.802 293.037 995.513 291.727 C 994.439 286.84 994.248 285.866 994.23 285.126 C 994.212 284.407 999.222 284.369 1093.548 284.369 Z M 1029.139 299.739 C 1027.453 301.302 1027.499 302.06 1030.57 323.999 C 1030.804 325.665 1031.114 327.905 1031.261 328.976 C 1031.407 330.048 1031.714 332.093 1031.94 333.521 C 1032.167 334.95 1032.554 337.774 1032.801 339.797 C 1034.554 354.169 1034.628 354.477 1036.503 355.332 C 1040.809 357.294 1043.422 354.61 1042.668 348.999 C 1042.137 345.05 1041.435 339.75 1040.989 336.335 C 1040.788 334.787 1040.399 332.06 1040.125 330.275 C 1039.851 328.489 1039.429 325.47 1039.187 323.566 C 1038.651 319.35 1038.119 315.469 1037.526 311.446 C 1037.28 309.78 1036.97 307.15 1036.839 305.603 C 1036.314 299.417 1032.566 296.563 1029.139 299.739 Z M 1068.979 299.723 C 1067.423 301.164 1067.211 302.394 1067.562 307.938 C 1067.905 313.365 1068.58 330.715 1068.926 343.044 C 1069.242 354.309 1069.794 355.812 1073.616 355.812 C 1077.68 355.812 1078.188 354.289 1077.721 343.477 C 1077.146 330.156 1076.477 313.763 1076.263 307.726 C 1076.156 304.728 1075.886 301.791 1075.661 301.201 C 1074.702 298.68 1070.991 297.859 1068.979 299.723 Z M 1112.793 299.652 C 1110.996 301.214 1111.182 298.85 1109.816 337.633 C 1109.603 343.704 1109.296 349.203 1109.133 349.853 C 1108.403 352.775 1110.608 355.812 1113.46 355.812 C 1116.149 355.812 1117.569 354.291 1117.658 351.316 C 1117.694 350.099 1117.758 348.909 1117.799 348.671 C 1117.917 347.999 1118.412 336.521 1118.697 327.909 C 1118.839 323.633 1119.025 320.02 1119.111 319.88 C 1119.198 319.74 1119.317 315.371 1119.377 310.171 L 1119.485 300.715 L 1118.213 299.699 C 1116.556 298.373 1114.289 298.352 1112.793 299.652 Z M 1152.55 299.53 C 1151.382 300.45 1151.055 301.51 1150.448 306.361 C 1149.916 310.614 1149.218 315.668 1148.73 318.805 C 1148.508 320.233 1148.126 322.863 1147.88 324.648 C 1147.635 326.433 1147.245 329.209 1147.013 330.816 C 1146.782 332.423 1146.409 335.052 1146.185 336.659 C 1145.961 338.266 1145.558 341.139 1145.29 343.044 C 1143.805 353.578 1144.356 355.829 1148.413 355.798 C 1151.54 355.776 1152.473 354.512 1153.124 349.414 C 1153.359 347.577 1153.722 344.71 1153.931 343.044 C 1154.141 341.377 1154.538 338.456 1154.816 336.551 C 1155.444 332.235 1156.119 327.42 1157.444 317.831 C 1157.699 315.986 1158.095 313.21 1158.326 311.663 C 1159.434 304.228 1159.342 300.895 1157.997 299.739 C 1156.462 298.419 1154.079 298.328 1152.55 299.53 Z" fill="#fad014" fill-rule="evenodd" style="stroke: rgb(90, 0, 171); stroke-width: 6px;">
      <title>Cesta</title>
    </path>
    <path id="path-2" d="M 1008.987 259.829 C 1007.717 258.5 1006.502 257.413 1006.287 257.413 C 1004.866 257.413 1004.897 257.378 1023.136 238.613 C 1029.658 231.903 1036.591 224.725 1038.544 222.661 C 1040.496 220.597 1042.942 218.027 1043.979 216.95 L 1045.864 214.99 L 1051.355 215.102 L 1056.847 215.213 L 1052.27 219.988 C 1049.753 222.614 1044.256 228.284 1040.053 232.588 C 1035.851 236.892 1030.901 242.016 1029.053 243.975 C 1027.206 245.933 1022.454 250.846 1018.494 254.89 L 1011.294 262.244 L 1008.987 259.829" fill-rule="evenodd" style="stroke-width: 6px; paint-order: stroke; stroke: rgb(90, 0, 171); fill: rgb(255, 255, 255); transform-box: fill-box; transform-origin: 50% 50%;" transform="matrix(-1, 0, 0, -1, -0.00011, 0.000009)">
      <title>Asa Izquierda Cesta</title>
    </path>
    <path id="path-5" d="M 1130.889 217.701 C 1129.619 219.03 1128.404 220.117 1128.189 220.117 C 1126.768 220.117 1126.799 220.152 1145.038 238.917 C 1151.56 245.627 1158.493 252.805 1160.446 254.869 C 1162.398 256.933 1164.844 259.503 1165.881 260.58 L 1167.766 262.54 L 1173.257 262.428 L 1178.749 262.317 L 1174.172 257.542 C 1171.655 254.916 1166.158 249.246 1161.955 244.942 C 1157.753 240.638 1152.803 235.514 1150.955 233.555 C 1149.108 231.597 1144.356 226.684 1140.396 222.64 L 1133.196 215.286 L 1130.889 217.701" fill-rule="evenodd" style="stroke-width: 6px; paint-order: stroke; stroke: rgb(90, 0, 171); fill: rgb(255, 255, 255); transform-origin: 1153.19px 238.913px;">
      <title>Asa Derecha Cesta</title>
    </path>
    <path id="path5" d="M 1059.54 200.437 C 1048.101 203.371 1050.339 220.157 1062.14 219.94 C 1074.686 219.71 1075.338 201.208 1062.829 200.394 C 1061.46 200.305 1059.98 200.324 1059.54 200.437 M 1121.94 200.437 C 1110.694 203.321 1112.779 219.966 1124.387 219.966 C 1136.948 219.966 1137.809 201.222 1125.287 200.399 C 1123.886 200.307 1122.38 200.324 1121.94 200.437" fill="#fb961d" fill-rule="evenodd" style="stroke-width: 6px; stroke: rgb(90, 0, 171); paint-order: stroke;">
      <title>Pomos Cesta</title>
    </path>
  </g>
  <g transform="matrix(0.016767, 0.023698, -0.027194, 0.019242, -5141.508789, -2852.643311)" id="g12" style="transform-origin: 5331.75px 3044.09px;">
    <title>Lapiz</title>
    <path id="path220" style="fill: rgb(225, 162, 93); fill-opacity: 1; fill-rule: evenodd; stroke: none;" d="m 5018.31,4454.89 313.43,443.57 313.45,-443.57 z"/>
    <path id="path222" style="fill:#d7924b;fill-opacity:1;fill-rule:evenodd;stroke:none" d="m 5331.74,4898.46 156.74,-307.81 v -194.93 l 156.71,59.17 -313.45,443.57"/>
    <path id="path224" style="fill-opacity: 1; fill-rule: evenodd; stroke: none; fill: rgb(56, 144, 75);" d="M 5645.19,4454.89 V 1325.5 h -626.88 v 3129.39 c 52.24,9.73 104.47,42.14 156.72,135.76 95.9,-54.4 198.91,-63.62 313.45,0 43.94,-76.97 94.1,-130.22 156.71,-135.76"/>
    <path id="path226" style="fill-opacity: 1; fill-rule: evenodd; stroke: none; fill: rgb(60, 168, 83);" d="M 5645.19,4454.89 V 1325.5 l -156.71,135.73 v 3129.42 c 43.94,-76.97 94.1,-130.22 156.71,-135.76"/>
    <path id="path228" style="fill-opacity: 1; fill-rule: evenodd; stroke: none; fill: rgb(61, 179, 86);" d="m 5175.03,4590.65 c 95.9,-54.4 198.91,-63.62 313.45,0 V 1461.23 h -313.45 v 3129.42"/>
    <path id="path230" style="fill: rgb(225, 162, 93); fill-opacity: 1; fill-rule: evenodd; stroke: none;" d="m 5018.31,1325.5 78.35,67.86 78.37,67.87 h 313.45 l 78.35,-67.87 78.36,-67.86 -78.36,-67.88 -78.35,-67.9 h -156.74 -156.71 l -78.37,67.9 -78.35,67.88"/>
    <path id="path232" style="fill-opacity: 1; fill-rule: evenodd; stroke: none; fill: rgb(61, 179, 86);" d="m 5331.74,1382.56 c 80.39,0 145.57,-25.56 145.57,-57.06 0,-31.51 -65.18,-57.06 -145.57,-57.06 -80.38,0 -145.55,25.55 -145.55,57.06 0,31.5 65.17,57.06 145.55,57.06"/>
    <path id="path234" style="fill-opacity: 1; fill-rule: evenodd; stroke: none; fill: rgb(61, 179, 86);" d="m 5234.52,4760.89 97.22,137.57 97.22,-137.57 c -63.25,36.04 -128.08,35.35 -194.44,0"/>
    <path id="path236" style="fill-opacity: 1; fill-rule: evenodd; stroke: none; fill: rgb(60, 168, 83);" d="m 5331.74,4898.46 97.22,-137.57 c -11.77,6.7 -23.59,12.13 -35.46,16.32 l -61.76,121.25"/>
  </g>
</svg>