<?xml version="1.0" encoding="utf-8"?>
<svg id="svg" version="1.1" width="400" height="400" viewBox="0, 0, 400,400" xmlns="http://www.w3.org/2000/svg">
  <path id="path14" style="fill: rgb(255, 255, 255); fill-opacity: 1; fill-rule: nonzero; stroke: none;" d="M 366.721 176.409 C 366.721 268.32 291.911 343.122 200 343.122 C 108.089 343.122 33.287 268.32 33.287 176.409 C 33.287 84.488 108.089 9.698 200 9.698 C 291.911 9.698 366.721 84.488 366.721 176.409"/>
  <path id="path16" style="fill: rgb(13, 170, 84); fill-opacity: 1; fill-rule: nonzero; stroke: none;" d="M 52.769 176.409 C 52.769 95.08 118.681 29.168 200 29.168 C 281.319 29.168 347.242 95.08 347.242 176.409 C 347.242 257.728 281.319 323.641 200 323.641 C 118.681 323.641 52.769 257.728 52.769 176.409 M 41.64 176.409 C 41.64 263.719 112.691 334.769 200 334.769 C 287.309 334.769 358.37 263.719 358.37 176.409 C 358.37 89.091 287.309 18.039 200 18.039 C 112.691 18.039 41.64 89.091 41.64 176.409"/>
  <path id="path18" style="fill: rgb(180, 32, 110); fill-opacity: 1; fill-rule: nonzero; stroke: none;" d="M 279.606 160.568 C 289.032 142.161 282.18 134.884 292.022 120.764 C 298.874 110.923 299.299 112.21 301.449 109.209 C 303.151 106.635 302.289 104.071 298.438 101.071 C 294.161 98.081 291.596 98.081 289.457 101.071 C 287.309 104.071 288.596 104.071 281.754 113.913 C 271.903 128.042 259.071 124.191 244.515 145.161 L 233.813 160.568 L 279.606 160.568"/>
  <path id="path20" style="fill: rgb(166, 216, 39); fill-opacity: 1; fill-rule: nonzero; stroke: none;" d="M 285.606 160.568 C 297.587 160.568 298.438 167.845 304.864 167.845 C 309.141 167.845 310.428 165.281 311.28 162.707 C 312.142 159.29 312.993 158.855 315.994 158.003 C 317.706 157.578 319.845 155.865 319.845 152.865 C 319.845 146.874 312.993 146.874 312.993 143.874 C 312.993 141.735 315.132 140.448 315.132 137.885 C 315.132 135.319 312.993 133.18 308.715 133.18 C 302.289 133.18 293.735 139.597 290.31 142.598 C 289.883 147.3 288.171 155.004 284.744 160.568 L 285.606 160.568"/>
  <path id="path22" style="fill: rgb(250, 178, 11); fill-opacity: 1; fill-rule: nonzero; stroke: none;" d="M 109.692 242.322 C 109.692 258.579 119.108 267.995 135.375 267.995 L 264.625 267.995 C 280.903 267.995 290.31 258.579 290.31 242.322 L 290.31 173.409 C 290.31 168.281 287.745 165.706 282.607 165.706 L 208.554 165.706 L 208.554 82.249 C 208.554 77.536 206.426 75.397 201.713 75.397 L 198.298 75.397 C 193.585 75.397 191.435 77.536 191.435 82.249 L 191.435 165.706 L 117.393 165.706 C 112.255 165.706 109.692 168.281 109.692 173.409 L 109.692 242.322"/>
  <path id="path24" style="fill: rgb(166, 216, 39); fill-opacity: 1; fill-rule: nonzero; stroke: none;" d="M 227.396 160.568 L 238.1 145.161 C 241.952 139.597 247.091 132.319 255.219 126.755 C 256.07 125.903 257.784 122.903 257.784 119.488 C 257.784 115.626 254.358 111.348 249.22 111.348 C 242.378 111.348 238.951 116.912 235.1 116.912 C 231.674 116.912 229.11 112.636 223.11 112.636 C 217.119 112.636 213.694 116.912 213.694 125.477 L 213.694 160.568 L 227.396 160.568"/>
  <path id="path26" style="fill: rgb(240, 67, 56); fill-opacity: 1; fill-rule: nonzero; stroke: none;" d="M 164.9 155.865 C 164.9 158.429 165.325 160.568 165.325 160.568 L 186.306 160.568 L 186.306 139.171 C 185.02 138.746 183.307 138.746 182.019 138.746 C 171.752 138.746 164.9 146.013 164.9 155.865"/>
  <path id="path28" style="fill: rgb(240, 67, 56); fill-opacity: 1; fill-rule: nonzero; stroke: none;" d="M 134.088 153.3 C 134.088 155.865 134.514 158.429 135.375 160.568 L 160.198 160.568 C 160.198 160.568 159.771 158.429 159.771 155.865 C 159.771 146.874 163.623 141.735 169.187 137.885 C 165.762 134.458 160.622 132.319 155.058 132.319 C 143.079 132.319 134.088 141.31 134.088 153.3"/>
  <path id="path30" style="fill: rgb(240, 67, 56); fill-opacity: 1; fill-rule: nonzero; stroke: none;" d="M 157.632 127.181 C 164.049 128.042 169.613 130.617 173.89 135.319 C 176.466 134.033 179.456 133.607 182.019 133.607 C 184.594 133.607 186.306 134.033 186.306 134.033 L 186.306 122.052 C 184.169 118.627 179.029 116.061 173.465 116.061 C 165.325 116.061 159.771 120.764 157.632 127.181"/>
  <path id="path32" style="fill: rgb(166, 216, 39); fill-opacity: 1; fill-rule: nonzero; stroke: none;" d="M 93.424 161.854 C 93.424 165.706 95.998 168.281 99.849 168.281 C 107.126 168.281 104.987 160.568 117.83 160.568 L 129.81 160.568 C 129.385 159.29 128.948 157.151 128.948 154.151 C 125.958 152.013 119.108 147.736 111.829 147.736 C 106.702 147.736 104.126 149.438 102.413 152.438 C 101.136 154.577 93.424 154.151 93.424 161.854"/>
  <path id="path34" style="fill: rgb(166, 216, 39); fill-opacity: 1; fill-rule: nonzero; stroke: none;" d="M 109.265 107.497 C 109.265 113.061 114.83 114.338 114.83 118.627 C 114.83 120.764 113.542 122.052 113.542 124.616 C 113.542 127.616 116.532 128.042 118.256 128.467 C 127.662 130.617 132.375 133.607 134.949 136.607 C 138.366 131.894 144.791 127.616 154.207 127.181 C 150.355 122.903 149.929 118.627 149.929 111.348 C 149.929 107.923 148.643 103.645 144.791 103.645 C 142.217 103.645 142.217 105.359 140.078 105.359 C 136.651 105.359 136.651 100.645 131.949 100.645 C 128.097 100.645 128.097 104.933 125.097 104.933 C 122.106 104.933 120.394 101.071 115.681 101.071 C 111.404 101.071 109.265 104.071 109.265 107.497"/>
  <path id="path36" style="fill: rgb(13, 170, 84); fill-opacity: 1; fill-rule: nonzero; stroke: none;" d="M 80.591 129.755 C 80.591 136.17 88.295 134.458 88.295 140.032 C 88.295 140.873 87.433 143.874 87.433 145.161 C 87.433 149.013 90.434 150.299 92.997 150.299 C 94.71 150.299 96.423 149.875 98.562 147.736 C 100.701 145.586 104.126 142.598 111.404 142.598 C 119.108 142.598 124.672 146.013 129.385 148.587 C 130.236 144.3 131.087 142.598 131.949 140.873 C 128.523 137.032 124.245 134.884 114.83 132.745 C 111.404 131.894 108.404 130.181 108.404 125.477 C 108.404 122.903 109.265 121.617 109.265 119.488 C 109.265 116.912 107.126 112.636 101.562 112.636 C 97.275 112.636 95.572 115.626 94.71 118.627 C 93.849 121.617 92.997 122.903 90.007 122.903 C 83.155 122.903 80.591 126.33 80.591 129.755"/>
  <path id="path40" style="fill: rgb(255, 255, 255); fill-opacity: 1; fill-rule: nonzero; stroke: none;" d="M 366.713 176.409 C 366.713 268.32 291.911 343.122 200 343.122 C 108.089 343.122 33.287 268.32 33.287 176.409 C 33.287 84.488 108.089 9.698 200 9.698 C 291.911 9.698 366.713 84.488 366.713 176.409"/>
  <path id="path42" style="fill: rgb(0, 166, 80); fill-opacity: 1; fill-rule: nonzero; stroke: none;" d="M 52.769 176.409 C 52.769 95.08 118.681 29.168 200 29.168 C 281.319 29.168 347.242 95.08 347.242 176.409 C 347.242 257.728 281.319 323.641 200 323.641 C 118.681 323.641 52.769 257.728 52.769 176.409 M 41.64 176.409 C 41.64 263.719 112.691 334.769 200 334.769 C 287.309 334.769 358.37 263.719 358.37 176.409 C 358.37 89.091 287.309 18.05 200 18.05 C 112.691 18.05 41.64 89.091 41.64 176.409"/>
  <path id="path44" style="fill: rgb(203, 19, 97); fill-opacity: 1; fill-rule: nonzero; stroke: none;" d="M 279.606 160.568 C 289.032 142.161 282.18 134.884 292.022 120.764 C 298.874 110.923 299.299 112.21 301.438 109.209 C 303.151 106.645 302.289 104.071 298.438 101.071 C 294.161 98.081 291.596 98.081 289.457 101.071 C 287.309 104.071 288.596 104.071 281.754 113.924 C 271.903 128.042 259.071 124.191 244.515 145.161 L 233.813 160.568 L 279.606 160.568"/>
  <path id="path46" style="fill: rgb(132, 205, 51); fill-opacity: 1; fill-rule: nonzero; stroke: none;" d="M 285.606 160.568 C 297.587 160.568 298.438 167.845 304.864 167.845 C 309.141 167.845 310.419 165.281 311.28 162.707 C 312.142 159.29 312.993 158.855 315.994 158.003 C 317.706 157.578 319.845 155.865 319.845 152.865 C 319.845 146.874 312.993 146.874 312.993 143.874 C 312.993 141.735 315.132 140.459 315.132 137.885 C 315.132 135.319 312.993 133.18 308.715 133.18 C 302.289 133.18 293.735 139.597 290.31 142.598 C 289.883 147.3 288.171 155.004 284.744 160.568 L 285.606 160.568"/>
  <path id="path48" style="fill: rgb(249, 174, 15); fill-opacity: 1; fill-rule: nonzero; stroke: none;" d="M 109.692 242.322 C 109.692 258.579 119.108 267.995 135.375 267.995 L 264.625 267.995 C 280.892 267.995 290.31 258.579 290.31 242.322 L 290.31 173.409 C 290.31 168.271 287.745 165.706 282.607 165.706 L 208.554 165.706 L 208.554 82.249 C 208.554 77.536 206.426 75.397 201.713 75.397 L 198.298 75.397 C 193.585 75.397 191.435 77.536 191.435 82.249 L 191.435 165.706 L 117.393 165.706 C 112.255 165.706 109.692 168.271 109.692 173.409 L 109.692 242.322"/>
  <path id="path50" style="fill: rgb(132, 205, 51); fill-opacity: 1; fill-rule: nonzero; stroke: none;" d="M 227.396 160.568 L 238.1 145.161 C 241.941 139.597 247.081 132.319 255.219 126.755 C 256.07 125.903 257.784 122.903 257.784 119.488 C 257.784 115.626 254.358 111.348 249.22 111.348 C 242.378 111.348 238.941 116.912 235.089 116.912 C 231.674 116.912 229.11 112.636 223.11 112.636 C 217.119 112.636 213.694 116.912 213.694 125.477 L 213.694 160.568 L 227.396 160.568"/>
  <path id="path52" style="fill: rgb(240, 56, 59); fill-opacity: 1; fill-rule: nonzero; stroke: none;" d="M 164.9 155.865 C 164.9 158.429 165.325 160.568 165.325 160.568 L 186.306 160.568 L 186.306 139.171 C 185.02 138.746 183.307 138.746 182.019 138.746 C 171.752 138.746 164.9 146.013 164.9 155.865"/>
  <path id="path54" style="fill: rgb(240, 56, 59); fill-opacity: 1; fill-rule: nonzero; stroke: none;" d="M 134.088 153.3 C 134.088 155.865 134.514 158.429 135.375 160.568 L 160.198 160.568 C 160.198 160.568 159.771 158.429 159.771 155.865 C 159.771 146.874 163.623 141.735 169.187 137.885 C 165.762 134.468 160.622 132.319 155.058 132.319 C 143.079 132.319 134.088 141.31 134.088 153.3"/>
  <path id="path56" style="fill: rgb(240, 56, 59); fill-opacity: 1; fill-rule: nonzero; stroke: none;" d="M 157.632 127.181 C 164.049 128.042 169.613 130.617 173.89 135.319 C 176.455 134.033 179.456 133.607 182.019 133.607 C 184.594 133.607 186.306 134.033 186.306 134.033 L 186.306 122.052 C 184.169 118.627 179.029 116.061 173.465 116.061 C 165.325 116.061 159.771 120.764 157.632 127.181"/>
  <path id="path58" style="fill: rgb(132, 205, 51); fill-opacity: 1; fill-rule: nonzero; stroke: none;" d="M 93.424 161.854 C 93.424 165.706 95.988 168.271 99.849 168.271 C 107.126 168.271 104.987 160.568 117.83 160.568 L 129.81 160.568 C 129.385 159.29 128.948 157.151 128.948 154.151 C 125.958 152.013 119.108 147.736 111.829 147.736 C 106.702 147.736 104.126 149.438 102.413 152.438 C 101.136 154.577 93.424 154.151 93.424 161.854"/>
  <path id="path60" style="fill: rgb(132, 205, 51); fill-opacity: 1; fill-rule: nonzero; stroke: none;" d="M 109.265 107.497 C 109.265 113.061 114.83 114.349 114.83 118.627 C 114.83 120.764 113.542 122.052 113.542 124.616 C 113.542 127.616 116.532 128.042 118.256 128.467 C 127.662 130.617 132.375 133.607 134.949 136.607 C 138.366 131.894 144.791 127.616 154.207 127.181 C 150.355 122.903 149.919 118.627 149.919 111.358 C 149.919 107.923 148.643 103.645 144.791 103.645 C 142.217 103.645 142.217 105.359 140.078 105.359 C 136.651 105.359 136.651 100.645 131.949 100.645 C 128.097 100.645 128.097 104.933 125.097 104.933 C 122.098 104.933 120.394 101.071 115.681 101.071 C 111.404 101.071 109.265 104.071 109.265 107.497"/>
  <path id="path62" style="fill: rgb(0, 166, 80); fill-opacity: 1; fill-rule: nonzero; stroke: none;" d="M 80.591 129.755 C 80.591 136.17 88.284 134.468 88.284 140.032 C 88.284 140.884 87.433 143.884 87.433 145.161 C 87.433 149.013 90.434 150.299 92.997 150.299 C 94.71 150.299 96.423 149.875 98.562 147.736 C 100.701 145.586 104.126 142.598 111.404 142.598 C 119.108 142.598 124.672 146.013 129.385 148.587 C 130.236 144.3 131.087 142.598 131.949 140.884 C 128.523 137.032 124.245 134.884 114.83 132.745 C 111.404 131.894 108.404 130.181 108.404 125.477 C 108.404 122.903 109.265 121.617 109.265 119.488 C 109.265 116.912 107.126 112.636 101.562 112.636 C 97.275 112.636 95.572 115.626 94.71 118.627 C 93.849 121.617 92.997 122.903 89.997 122.903 C 83.155 122.903 80.591 126.33 80.591 129.755"/>
  <path id="path64" style="fill: rgb(0, 166, 80); fill-opacity: 1; fill-rule: nonzero; stroke: none;" d="M 360.691 365.259 L 360.803 365.259 L 363.884 374.055 L 357.672 374.055 L 360.691 365.259 Z M 199.94 365.259 L 200.06 365.259 L 203.131 374.055 L 196.919 374.055 L 199.94 365.259 Z M 234.329 362.014 L 236.57 362.014 C 241.283 362.014 243.573 365.542 243.573 369.576 C 243.573 373.61 241.283 377.137 236.57 377.137 L 234.329 377.137 L 234.329 362.014 Z M 272.197 369.576 C 272.197 364.873 275.552 361.345 280.204 361.345 C 284.856 361.345 288.211 364.873 288.211 369.576 C 288.211 374.339 284.856 377.806 280.204 377.806 C 275.552 377.806 272.197 374.339 272.197 369.576 M 120.019 360.839 L 123.384 360.839 C 125.898 360.839 126.79 362.693 126.79 364.143 C 126.79 365.603 125.898 367.447 123.384 367.447 L 120.019 367.447 L 120.019 360.839 Z M 221.569 383.188 C 221.569 386.938 224.143 389.462 227.893 389.462 L 232.708 389.462 C 239.539 389.462 245.59 388.561 250.405 384.252 C 254.5 380.613 256.851 375.343 256.851 369.576 C 256.851 363.809 254.5 358.539 250.405 354.899 C 245.59 350.592 239.539 349.689 232.708 349.689 L 227.893 349.689 C 224.143 349.689 221.569 352.213 221.569 355.963 L 221.569 383.188 Z M 107.248 383.523 C 107.248 387.273 109.884 389.909 113.634 389.909 C 117.385 389.909 120.019 387.273 120.019 383.523 L 120.019 376.691 L 120.131 376.691 L 128.534 387 C 129.425 388.114 131.168 389.909 133.966 389.909 C 137.494 389.909 140.291 387.385 140.291 383.746 C 140.291 381.678 139.287 380.218 138.223 378.982 L 134.523 374.836 C 137.494 372.546 139.621 368.846 139.621 363.971 C 139.621 357.868 136.541 353.277 131.331 351.099 C 128.645 349.974 125.898 349.689 121.479 349.689 L 113.806 349.689 C 109.934 349.689 107.248 352.325 107.248 356.187 L 107.248 383.523 Z M 73.922 383.188 C 73.922 386.938 76.496 389.462 80.256 389.462 L 98.734 389.462 C 102.038 389.462 104.451 387.049 104.451 383.746 C 104.451 380.442 102.038 378.029 98.734 378.029 L 86.866 378.029 L 86.866 374.898 L 96.667 374.898 C 99.798 374.898 101.988 372.657 101.988 369.576 C 101.988 366.495 99.798 364.254 96.667 364.254 L 86.866 364.254 L 86.866 361.123 L 98.288 361.123 C 101.593 361.123 104.005 358.711 104.005 355.406 C 104.005 352.101 101.593 349.689 98.288 349.689 L 80.256 349.689 C 76.496 349.689 73.922 352.213 73.922 355.963 L 73.922 383.188 Z M 341.201 383.695 C 341.201 387.161 343.999 389.909 347.474 389.909 C 350.89 389.909 352.907 387.557 353.464 385.873 L 354.083 384.08 L 367.473 384.08 L 368.08 385.873 C 368.647 387.557 370.666 389.909 374.081 389.909 C 377.547 389.909 380.355 387.049 380.355 383.573 C 380.355 382.175 379.899 381.171 379.057 379.215 L 369.651 356.632 C 367.634 351.879 365.394 349.244 360.753 349.244 C 356.1 349.244 353.911 351.879 351.894 356.632 L 342.487 379.215 C 341.758 380.949 341.201 382.235 341.201 383.695 M 304.012 383.523 C 304.012 387.273 306.698 389.909 310.398 389.909 C 314.087 389.909 316.783 387.273 316.783 383.523 L 316.783 372.039 L 316.895 372.039 L 325.683 385.316 C 327.65 388.286 329.545 389.909 332.798 389.909 C 336.608 389.909 339.356 387.221 339.356 383.411 L 339.356 355.63 C 339.356 351.879 336.66 349.244 332.97 349.244 C 329.271 349.244 326.575 351.879 326.575 355.63 L 326.575 367.112 L 326.474 367.112 L 317.675 353.835 C 315.719 350.865 313.813 349.244 310.56 349.244 C 306.75 349.244 304.012 351.929 304.012 355.741 L 304.012 383.523 Z M 180.448 383.695 C 180.448 387.161 183.256 389.909 186.722 389.909 C 190.148 389.909 192.156 387.557 192.723 385.873 L 193.33 384.08 L 206.72 384.08 L 207.339 385.873 C 207.896 387.557 209.913 389.909 213.329 389.909 C 216.804 389.909 219.602 387.049 219.602 383.573 C 219.602 382.175 219.157 381.171 218.316 379.215 L 208.909 356.632 C 206.892 351.879 204.653 349.244 200 349.244 C 195.347 349.244 193.169 351.879 191.152 356.632 L 181.736 379.215 C 181.015 380.949 180.448 382.235 180.448 383.695 M 19.645 383.461 C 19.645 387.718 22.726 389.909 26.031 389.909 C 29.456 389.909 32.082 387.668 32.639 383.299 L 34.099 371.653 L 34.211 371.653 L 38.133 384.587 C 39.309 388.398 41.995 389.909 45.136 389.909 C 48.269 389.909 50.955 388.398 52.131 384.587 L 56.053 371.653 L 56.165 371.653 L 57.624 383.299 C 58.182 387.668 60.816 389.909 64.232 389.909 C 67.537 389.909 70.618 387.718 70.618 383.461 C 70.618 383.076 70.567 382.519 70.507 382.063 L 66.31 356.41 C 65.581 351.879 62.723 349.244 58.404 349.244 C 54.208 349.244 51.462 351.596 50.124 355.913 L 45.188 371.817 L 45.076 371.817 L 40.15 355.913 C 38.802 351.596 36.055 349.244 31.858 349.244 C 27.551 349.244 24.693 351.879 23.963 356.41 L 19.757 382.063 C 19.707 382.519 19.645 383.076 19.645 383.461 M 259.091 369.576 C 259.091 381.282 268.275 390.303 280.204 390.303 C 292.134 390.303 301.316 381.282 301.316 369.576 C 301.316 357.868 292.134 348.848 280.204 348.848 C 268.275 348.848 259.091 357.868 259.091 369.576 M 141.923 369.576 C 141.923 381.618 150.71 390.303 162.417 390.303 C 168.468 390.303 174.347 388.002 177.6 383.807 C 178.887 382.235 179.495 380.613 179.495 378.758 C 179.495 375.07 176.648 372.546 173.283 372.546 C 168.245 372.546 168.185 377.309 162.417 377.309 C 158.556 377.309 155.079 374.674 155.027 369.576 C 155.079 364.478 158.556 361.842 162.417 361.842 C 168.185 361.842 168.245 366.607 173.283 366.607 C 176.648 366.607 179.495 364.093 179.495 360.393 C 179.495 358.539 178.887 356.916 177.6 355.346 C 174.347 351.149 168.468 348.848 162.417 348.848 C 150.71 348.848 141.923 357.535 141.923 369.576"/>
</svg>